<svg viewBox="0 0 330 200" xmlns="http://www.w3.org/2000/svg"><g><g><g><g><g><line x1="70" y1="178" x2="65" y2="178" style="visibility: inherit;" fill="rgb(0, 0, 0)" stroke="rgb(204, 204, 204)" stroke-width="1px"></line><line x1="70" y1="161.8181818181818" x2="65" y2="161.8181818181818" style="visibility: inherit;" fill="rgb(0, 0, 0)" stroke="rgb(204, 204, 204)" stroke-width="1px"></line><line x1="70" y1="145.63636363636363" x2="65" y2="145.63636363636363" style="visibility: inherit;" fill="rgb(0, 0, 0)" stroke="rgb(204, 204, 204)" stroke-width="1px"></line><line x1="70" y1="129.45454545454547" x2="65" y2="129.45454545454547" style="visibility: inherit;" fill="rgb(0, 0, 0)" stroke="rgb(204, 204, 204)" stroke-width="1px"></line><line x1="70" y1="113.27272727272727" x2="65" y2="113.27272727272727" style="visibility: inherit;" fill="rgb(0, 0, 0)" stroke="rgb(204, 204, 204)" stroke-width="1px"></line><line x1="70" y1="97.0909090909091" x2="65" y2="97.0909090909091" style="visibility: inherit;" fill="rgb(0, 0, 0)" stroke="rgb(204, 204, 204)" stroke-width="1px"></line><line x1="70" y1="80.90909090909092" x2="65" y2="80.90909090909092" style="visibility: inherit;" fill="rgb(0, 0, 0)" stroke="rgb(204, 204, 204)" stroke-width="1px"></line><line x1="70" y1="64.72727272727273" x2="65" y2="64.72727272727273" style="visibility: inherit;" fill="rgb(0, 0, 0)" stroke="rgb(204, 204, 204)" stroke-width="1px"></line><line x1="70" y1="48.54545454545453" x2="65" y2="48.54545454545453" style="visibility: inherit;" fill="rgb(0, 0, 0)" stroke="rgb(204, 204, 204)" stroke-width="1px"></line><line x1="70" y1="32.363636363636346" x2="65" y2="32.363636363636346" style="visibility: inherit;" fill="rgb(0, 0, 0)" stroke="rgb(204, 204, 204)" stroke-width="1px"></line><line x1="70" y1="16.181818181818187" x2="65" y2="16.181818181818187" style="visibility: inherit;" fill="rgb(0, 0, 0)" stroke="rgb(204, 204, 204)" stroke-width="1px"></line><line x1="70" y1="0" x2="65" y2="0" style="visibility: inherit;" fill="rgb(0, 0, 0)" stroke="rgb(204, 204, 204)" stroke-width="1px"></line></g><g transform="translate(60, 0)"><text x="0" y="178" dx="0em" dy="0.3em" style="text-anchor: end; visibility: hidden; font-family: &quot;Helvetica Neue&quot;, sans-serif; font-size: 12px; font-weight: 200;" fill="rgb(50, 49, 63)" stroke="none" stroke-width="1px">-200</text><text x="0" y="161.8181818181818" dx="0em" dy="0.3em" style="text-anchor: end; visibility: inherit; font-family: &quot;Helvetica Neue&quot;, sans-serif; font-size: 12px; font-weight: 200;" fill="rgb(50, 49, 63)" stroke="none" stroke-width="1px">0</text><text x="0" y="145.63636363636363" dx="0em" dy="0.3em" style="text-anchor: end; visibility: hidden; font-family: &quot;Helvetica Neue&quot;, sans-serif; font-size: 12px; font-weight: 200;" fill="rgb(50, 49, 63)" stroke="none" stroke-width="1px">200</text><text x="0" y="129.45454545454547" dx="0em" dy="0.3em" style="text-anchor: end; visibility: inherit; font-family: &quot;Helvetica Neue&quot;, sans-serif; font-size: 12px; font-weight: 200;" fill="rgb(50, 49, 63)" stroke="none" stroke-width="1px">400</text><text x="0" y="113.27272727272727" dx="0em" dy="0.3em" style="text-anchor: end; visibility: hidden; font-family: &quot;Helvetica Neue&quot;, sans-serif; font-size: 12px; font-weight: 200;" fill="rgb(50, 49, 63)" stroke="none" stroke-width="1px">600</text><text x="0" y="97.0909090909091" dx="0em" dy="0.3em" style="text-anchor: end; visibility: inherit; font-family: &quot;Helvetica Neue&quot;, sans-serif; font-size: 12px; font-weight: 200;" fill="rgb(50, 49, 63)" stroke="none" stroke-width="1px">800</text><text x="0" y="80.90909090909092" dx="0em" dy="0.3em" style="text-anchor: end; visibility: hidden; font-family: &quot;Helvetica Neue&quot;, sans-serif; font-size: 12px; font-weight: 200;" fill="rgb(50, 49, 63)" stroke="none" stroke-width="1px">1e+3</text><text x="0" y="64.72727272727273" dx="0em" dy="0.3em" style="text-anchor: end; visibility: inherit; font-family: &quot;Helvetica Neue&quot;, sans-serif; font-size: 12px; font-weight: 200;" fill="rgb(50, 49, 63)" stroke="none" stroke-width="1px">1.2e+3</text><text x="0" y="48.54545454545453" dx="0em" dy="0.3em" style="text-anchor: end; visibility: hidden; font-family: &quot;Helvetica Neue&quot;, sans-serif; font-size: 12px; font-weight: 200;" fill="rgb(50, 49, 63)" stroke="none" stroke-width="1px">1.4e+3</text><text x="0" y="32.363636363636346" dx="0em" dy="0.3em" style="text-anchor: end; visibility: inherit; font-family: &quot;Helvetica Neue&quot;, sans-serif; font-size: 12px; font-weight: 200;" fill="rgb(50, 49, 63)" stroke="none" stroke-width="1px">1.6e+3</text><text x="0" y="16.181818181818187" dx="0em" dy="0.3em" style="text-anchor: end; visibility: hidden; font-family: &quot;Helvetica Neue&quot;, sans-serif; font-size: 12px; font-weight: 200;" fill="rgb(50, 49, 63)" stroke="none" stroke-width="1px">1.8e+3</text><text x="0" y="0" dx="0em" dy="0.3em" style="text-anchor: end; visibility: hidden; font-family: &quot;Helvetica Neue&quot;, sans-serif; font-size: 12px; font-weight: 200;" fill="rgb(50, 49, 63)" stroke="none" stroke-width="1px">2e+3</text></g><line x1="70" y1="0" x2="70" y2="178" fill="rgb(0, 0, 0)" stroke="rgb(204, 204, 204)" stroke-width="1px"></line></g></g><g transform="translate(70, 0)" clip-path="url(#clip_0)"><clipPath id="clip_0"><rect width="260" height="178"></rect></clipPath><g><g><g><line x1="0" y1="0" x2="0" y2="178" fill="rgb(0, 0, 0)" stroke="rgb(60, 60, 60)" stroke-width="1px" opacity="0.25"></line><line x1="26" y1="0" x2="26" y2="178" fill="rgb(0, 0, 0)" stroke="rgb(60, 60, 60)" stroke-width="1px" opacity="0.25"></line><line x1="52" y1="0" x2="52" y2="178" fill="rgb(0, 0, 0)" stroke="rgb(60, 60, 60)" stroke-width="1px" opacity="0.25"></line><line x1="78" y1="0" x2="78" y2="178" fill="rgb(0, 0, 0)" stroke="rgb(60, 60, 60)" stroke-width="1px" opacity="0.25"></line><line x1="104" y1="0" x2="104" y2="178" fill="rgb(0, 0, 0)" stroke="rgb(60, 60, 60)" stroke-width="1px" opacity="0.25"></line><line x1="130" y1="0" x2="130" y2="178" fill="rgb(0, 0, 0)" stroke="rgb(60, 60, 60)" stroke-width="1px" opacity="0.25"></line><line x1="156" y1="0" x2="156" y2="178" fill="rgb(0, 0, 0)" stroke="rgb(60, 60, 60)" stroke-width="1px" opacity="0.25"></line><line x1="182" y1="0" x2="182" y2="178" fill="rgb(0, 0, 0)" stroke="rgb(60, 60, 60)" stroke-width="1px" opacity="0.25"></line><line x1="208" y1="0" x2="208" y2="178" fill="rgb(0, 0, 0)" stroke="rgb(60, 60, 60)" stroke-width="1px" opacity="0.25"></line><line x1="234" y1="0" x2="234" y2="178" fill="rgb(0, 0, 0)" stroke="rgb(60, 60, 60)" stroke-width="1px" opacity="0.25"></line><line x1="260" y1="0" x2="260" y2="178" fill="rgb(0, 0, 0)" stroke="rgb(60, 60, 60)" stroke-width="1px" opacity="0.25"></line></g><g><line x1="0" y1="178" x2="260" y2="178" fill="rgb(0, 0, 0)" stroke="rgb(60, 60, 60)" stroke-width="1px" opacity="0.25"></line><line x1="0" y1="161.8181818181818" x2="260" y2="161.8181818181818" fill="rgb(0, 0, 0)" stroke="rgb(60, 60, 60)" stroke-width="1px" opacity="0.25"></line><line x1="0" y1="145.63636363636363" x2="260" y2="145.63636363636363" fill="rgb(0, 0, 0)" stroke="rgb(60, 60, 60)" stroke-width="1px" opacity="0.25"></line><line x1="0" y1="129.45454545454547" x2="260" y2="129.45454545454547" fill="rgb(0, 0, 0)" stroke="rgb(60, 60, 60)" stroke-width="1px" opacity="0.25"></line><line x1="0" y1="113.27272727272727" x2="260" y2="113.27272727272727" fill="rgb(0, 0, 0)" stroke="rgb(60, 60, 60)" stroke-width="1px" opacity="0.25"></line><line x1="0" y1="97.0909090909091" x2="260" y2="97.0909090909091" fill="rgb(0, 0, 0)" stroke="rgb(60, 60, 60)" stroke-width="1px" opacity="0.25"></line><line x1="0" y1="80.90909090909092" x2="260" y2="80.90909090909092" fill="rgb(0, 0, 0)" stroke="rgb(60, 60, 60)" stroke-width="1px" opacity="0.25"></line><line x1="0" y1="64.72727272727273" x2="260" y2="64.72727272727273" fill="rgb(0, 0, 0)" stroke="rgb(60, 60, 60)" stroke-width="1px" opacity="0.25"></line><line x1="0" y1="48.54545454545453" x2="260" y2="48.54545454545453" fill="rgb(0, 0, 0)" stroke="rgb(60, 60, 60)" stroke-width="1px" opacity="0.25"></line><line x1="0" y1="32.363636363636346" x2="260" y2="32.363636363636346" fill="rgb(0, 0, 0)" stroke="rgb(60, 60, 60)" stroke-width="1px" opacity="0.25"></line><line x1="0" y1="16.181818181818187" x2="260" y2="16.181818181818187" fill="rgb(0, 0, 0)" stroke="rgb(60, 60, 60)" stroke-width="1px" opacity="0.25"></line><line x1="0" y1="0" x2="260" y2="0" fill="rgb(0, 0, 0)" stroke="rgb(60, 60, 60)" stroke-width="1px" opacity="0.25"></line></g></g></g><g><g><line x1="0" y1="161.8181818181818" x2="260" y2="161.8181818181818" fill="rgb(0, 0, 0)" stroke="rgb(153, 153, 153)" stroke-width="1.5px"></line></g></g><g><g><line x1="26" y1="0" x2="26" y2="178" fill="rgb(0, 0, 0)" stroke="rgb(153, 153, 153)" stroke-width="1.5px"></line></g></g><g><g><g><g><g><path stroke="rgb(0, 119, 187)" stroke-width="2px" d="M33.800000000000004,-13.105356231526258L36.400000000000006,33.41360655583111L39,69.28719695311855L41.6,91.76969151123856L44.2,108.73039920613999L46.8,120.19832945854535L49.4,127.46627124389055L52,134.79931643666168L54.6,139.14415605275818L57.2,141.20305057742468L59.800000000000004,143.680633827884L62.4,145.22180175248022L65,146.73216375742066L67.60000000000001,147.38223731407086L70.2,148.68583924531075L72.80000000000001,149.67023380921663L75.39999999999999,150.46857201476675L78,151.11489838737856L80.6,151.02713549801567L83.2,151.64110771402858L85.8,151.87504803893978L88.4,152.3398658520853L91,152.56878249218414L93.6,152.94441329851057L96.2,153.2599281411239L98.8,153.8323996837178L101.4,154.18899267337693L104,154.42337297720078L106.6,154.39723402815883L109.2,154.76405650441356L111.8,154.93415389764505L114.4,154.9435236664292L117,154.9423212921303L119.60000000000001,155.15977243749037L122.19999999999999,155.2508693249818L124.8,155.54174457093455L127.39999999999999,155.87265256131806L130,156.06224792288484L132.6,156.10260646082597L135.20000000000002,156.27670636589244L137.8,156.40328988844942L140.4,156.35848673935052L143,156.35528448745777L145.60000000000002,156.53849811419005L148.2,156.59155622158696L150.79999999999998,156.80637037291422L153.4,156.7366822063252L156,156.97199825146407L158.6,157.73105291178484L161.2,158.61149695509135L163.8,159.23995813454783L166.4,159.53382814597103L169,159.85518571065847L171.6,160.03997619260272L174.20000000000002,160.12393360402268L176.8,160.198604852355L179.39999999999998,160.26620149326115L182,160.3341414198603L184.6,160.37109300898737L187.2,160.3319555358667L189.79999999999998,160.3671302910413L192.4,160.43336277108529L195,160.43498072042928L197.6,160.4138472933138L200.20000000000002,160.28170608037283L202.8,160.34048841498617L205.4,160.32283517642756L208,160.32309496017118L210.60000000000002,160.33285403185L213.2,160.35993669140447L215.79999999999998,160.44891002398685L218.4,160.42788243781519L221,160.40482181581632L223.6,160.4084237492521L226.2,160.36016166657117L228.8,160.36348589237656L231.4,160.27874229226188L234,160.30491989290195L236.6,160.30975071392834L239.20000000000002,160.34590531699558L241.8,160.36845987374116" style="fill: none;" fill="none"></path></g><g><path stroke="rgb(255, 112, 67)" stroke-width="2px" d="M36.400000000000006,-14.038975240172988L39,36.54002301429469L41.6,70.82320936507128L44.2,94.58214136935113L46.8,110.28035863115933L49.4,121.26872099172425L52,129.0964573976823L54.6,134.43788580967745L57.2,138.36410051685874L59.800000000000004,141.11502530670032L62.4,143.172613412746L65,145.10147869011203L67.60000000000001,146.06531157814925L70.2,147.13175473856427L72.80000000000001,148.2049890191917L75.39999999999999,148.79252585137738L78,149.3545629243235L80.6,149.93617394878683L83.2,150.7756432470171L85.8,151.32100644394797L88.4,151.8370403421239L91,152.14602541649504L93.6,152.48268180928315L96.2,152.75470844862042L98.8,153.14271824802566L101.4,153.44152762686832L104,153.63706342767472L106.6,154.03748771948798L109.2,154.26939827686675L111.8,154.42046541143287L114.4,154.58620981112145L117,154.7400994678056L119.60000000000001,154.9630117639166L122.19999999999999,155.1368633139893L124.8,155.1858040597251L127.39999999999999,155.4102115648859L130,155.60253441256324L132.6,155.6793046968691L135.20000000000002,155.75073713166304L137.8,155.8947771539562L140.4,155.9523333528156L143,156.10244870110745L145.60000000000002,156.23396579437767L148.2,156.36452078133922L150.79999999999998,156.3873964287648L153.4,156.42532911203102L156,156.57828820985074L158.6,157.5389975022738L161.2,158.4286243217338L163.8,159.02088925645975L166.4,159.42175001297701L169,159.65669760882722L171.6,159.84221770983316L174.20000000000002,159.9555829917058L176.8,160.05419955282488L179.39999999999998,160.12390677018593L182,160.17723591752483L184.6,160.21009446008853L187.2,160.2353453570834L189.79999999999998,160.27659233637584L192.4,160.30875735522793L195,160.31778581572465L197.6,160.31824897564638L200.20000000000002,160.31099071867308L202.8,160.32395511984686L205.4,160.3213179620171L208,160.3332403101526L210.60000000000002,160.3252264743828L213.2,160.32914217194434L215.79999999999998,160.32036770159857L218.4,160.31665901567905L221,160.3252978767536L223.6,160.32405276266772L226.2,160.3410752989858L228.8,160.31464472856362L231.4,160.30846255111078L234,160.32066753047226L236.6,160.3314914634405L239.20000000000002,160.34278745480214L241.8,160.3497687544531" style="fill: none;" fill="none"></path></g></g></g></g><g opacity="0.2"><g><g><g><path stroke="rgb(0, 119, 187)" stroke-width="2px" d="M28.6,-92.15318292791193L31.2,11.087735595703123L33.800000000000004,63.288222767223004L36.400000000000006,94.14876437100497L39,118.91328696511009L41.6,123.92001844926315L44.2,133.45927384810014L46.8,137.111299050071L49.4,138.25831776012075L52,145.7323740456321L54.6,145.63777105158027L57.2,144.28466971657494L59.800000000000004,147.39215486006304L62.4,147.5317420543324L65,148.99664154052735L67.60000000000001,148.35707255970348L70.2,150.64091115778143L72.80000000000001,151.1466756924716L75.39999999999999,151.66600635181774L78,152.08435250022194L80.6,150.89549405184658L83.2,152.56205391623757L85.8,152.22595575506037L88.4,153.0370892680775L91,152.9121564761075L93.6,153.5078585468639L96.2,153.7331999206543L98.8,154.69110647028143L101.4,154.72388196078214L104,154.7749433552135L106.6,154.3580256097967L109.2,155.31429017500443L111.8,155.1892999753085L114.4,154.95757831920275L117,154.94051773071288L119.60000000000001,155.4859491521662L122.19999999999999,155.3875146553733L124.8,155.97805743824352L127.39999999999999,156.36901454578748L130,156.34664096485486L132.6,156.1631442676891L135.20000000000002,156.53785622336648L137.8,156.5931651722301L140.4,156.2912820157138L143,156.35048110961915L145.60000000000002,156.81331855427135L148.2,156.67114338267933L150.79999999999998,157.1285915998979L153.4,156.6321499564431L156,157.3249723191695L158.6,158.86963490226051L161.2,159.93216302004728L163.8,160.18264990373092L166.4,159.97463316310535L169,160.33722205768933L171.6,160.31716191551902L174.20000000000002,160.24986972115255L176.8,160.31061172485352L179.39999999999998,160.36759645462035L182,160.43605130975897L184.6,160.42652039267801L187.2,160.27324932618575L189.79999999999998,160.41989242380316L192.4,160.5327114911513L195,160.43740764444524L197.6,160.3821471526406L200.20000000000002,160.08349426096134L202.8,160.42866191690618L205.4,160.29635531858963L208,160.32348463578657L210.60000000000002,160.34749263936823L213.2,160.4005606807362L215.79999999999998,160.58237002286043L218.4,160.39634105855768L221,160.37023088281805L223.6,160.41382664940573L226.2,160.28776854254983L228.8,160.36847223108464L231.4,160.15162689208984L234,160.3441862938621L236.6,160.31699694546785L239.20000000000002,160.40013722159645L241.8,160.40229170885954" style="fill: none;" fill="none"></path></g><g><path stroke="rgb(255, 112, 67)" stroke-width="2px" d="M31.2,-54.17778209339488L33.800000000000004,32.41785888671873L36.400000000000006,80.63927212801848L39,106.50898603959517L41.6,119.84871437766336L44.2,129.22289231733842L46.8,133.43217987060547L49.4,137.58515846946023L52,140.7670650135387L54.6,142.4209606101296L57.2,144.2406028053977L59.800000000000004,145.2360231434215L62.4,146.25657695423473L65,147.99341622092507L67.60000000000001,147.51065304842862L70.2,148.7311487093839L72.80000000000001,149.8146769436923L75.39999999999999,149.67377739646219L78,150.19758771029385L80.6,150.80857134732332L83.2,152.0348306205056L85.8,152.13904477899723L88.4,152.61108752163975L91,152.60950171037155L93.6,152.98766553705389L96.2,153.16274799000132L98.8,153.72473258972167L101.4,153.88974152998492L104,153.9303670640425L106.6,154.63812407753684L109.2,154.61726408524947L111.8,154.6470661024614L114.4,154.83482640353117L117,154.97093394886363L119.60000000000001,155.29738020463424L122.19999999999999,155.39764063748447L124.8,155.2592151780562L127.39999999999999,155.74682282187723L130,155.89101868369363L132.6,155.79446012323552L135.20000000000002,155.85788578380237L137.8,156.11083718733354L140.4,156.03866765108975L143,156.32762172352184L145.60000000000002,156.43124143427067L148.2,156.56035326177422L150.79999999999998,156.42170989990234L153.4,156.4822281369296L156,156.80772685657848L158.6,158.98006144090132L161.2,159.76306455091998L163.8,159.90928665854713L166.4,160.02304114775225L169,160.00911900260232L171.6,160.120497861342L174.20000000000002,160.12563091451472L176.8,160.2021243945035L179.39999999999998,160.22846759622746L182,160.25722963853315L184.6,160.2593822739341L187.2,160.27322170257568L189.79999999999998,160.3384628053145L192.4,160.35700488350608L195,160.33132850646973L197.6,160.318943715529L200.20000000000002,160.30010333321312L202.8,160.34340172160756L205.4,160.31736222527243L208,160.35112383235585L210.60000000000002,160.3132057207281L213.2,160.33501571828668L215.79999999999998,160.3072059960799L218.4,160.31109598679976L221,160.3382561683655L223.6,160.32218509153887L226.2,160.3666091034629L228.8,160.27499887293035L231.4,160.29918928493151L234,160.3389749995145L236.6,160.34772736289284L239.20000000000002,160.3597314418446L241.8,160.36024070392955" style="fill: none;" fill="none"></path></g></g></g></g></g></g><g transform="translate(70, 178)" clip-path="url(#clip_1)"><clipPath id="clip_1"><rect width="260" height="22"></rect></clipPath><g><g><line x1="0" y1="0" x2="0" y2="5" style="visibility: inherit;" fill="rgb(0, 0, 0)" stroke="rgb(204, 204, 204)" stroke-width="1px"></line><line x1="26" y1="0" x2="26" y2="5" style="visibility: inherit;" fill="rgb(0, 0, 0)" stroke="rgb(204, 204, 204)" stroke-width="1px"></line><line x1="52" y1="0" x2="52" y2="5" style="visibility: inherit;" fill="rgb(0, 0, 0)" stroke="rgb(204, 204, 204)" stroke-width="1px"></line><line x1="78" y1="0" x2="78" y2="5" style="visibility: inherit;" fill="rgb(0, 0, 0)" stroke="rgb(204, 204, 204)" stroke-width="1px"></line><line x1="104" y1="0" x2="104" y2="5" style="visibility: inherit;" fill="rgb(0, 0, 0)" stroke="rgb(204, 204, 204)" stroke-width="1px"></line><line x1="130" y1="0" x2="130" y2="5" style="visibility: inherit;" fill="rgb(0, 0, 0)" stroke="rgb(204, 204, 204)" stroke-width="1px"></line><line x1="156" y1="0" x2="156" y2="5" style="visibility: inherit;" fill="rgb(0, 0, 0)" stroke="rgb(204, 204, 204)" stroke-width="1px"></line><line x1="182" y1="0" x2="182" y2="5" style="visibility: inherit;" fill="rgb(0, 0, 0)" stroke="rgb(204, 204, 204)" stroke-width="1px"></line><line x1="208" y1="0" x2="208" y2="5" style="visibility: inherit;" fill="rgb(0, 0, 0)" stroke="rgb(204, 204, 204)" stroke-width="1px"></line><line x1="234" y1="0" x2="234" y2="5" style="visibility: inherit;" fill="rgb(0, 0, 0)" stroke="rgb(204, 204, 204)" stroke-width="1px"></line><line x1="260" y1="0" x2="260" y2="5" style="visibility: inherit;" fill="rgb(0, 0, 0)" stroke="rgb(204, 204, 204)" stroke-width="1px"></line></g><g transform="translate(0, 8)"><text x="0" y="0" dx="0em" dy="0.95em" style="text-anchor: middle; visibility: hidden; font-family: &quot;Helvetica Neue&quot;, sans-serif; font-size: 12px; font-weight: 200;" fill="rgb(50, 49, 63)" stroke="none" stroke-width="1px">-10</text><text x="26" y="0" dx="0em" dy="0.95em" style="text-anchor: middle; visibility: inherit; font-family: &quot;Helvetica Neue&quot;, sans-serif; font-size: 12px; font-weight: 200;" fill="rgb(50, 49, 63)" stroke="none" stroke-width="1px">0</text><text x="52" y="0" dx="0em" dy="0.95em" style="text-anchor: middle; visibility: inherit; font-family: &quot;Helvetica Neue&quot;, sans-serif; font-size: 12px; font-weight: 200;" fill="rgb(50, 49, 63)" stroke="none" stroke-width="1px">10</text><text x="78" y="0" dx="0em" dy="0.95em" style="text-anchor: middle; visibility: inherit; font-family: &quot;Helvetica Neue&quot;, sans-serif; font-size: 12px; font-weight: 200;" fill="rgb(50, 49, 63)" stroke="none" stroke-width="1px">20</text><text x="104" y="0" dx="0em" dy="0.95em" style="text-anchor: middle; visibility: inherit; font-family: &quot;Helvetica Neue&quot;, sans-serif; font-size: 12px; font-weight: 200;" fill="rgb(50, 49, 63)" stroke="none" stroke-width="1px">30</text><text x="130" y="0" dx="0em" dy="0.95em" style="text-anchor: middle; visibility: inherit; font-family: &quot;Helvetica Neue&quot;, sans-serif; font-size: 12px; font-weight: 200;" fill="rgb(50, 49, 63)" stroke="none" stroke-width="1px">40</text><text x="156" y="0" dx="0em" dy="0.95em" style="text-anchor: middle; visibility: inherit; font-family: &quot;Helvetica Neue&quot;, sans-serif; font-size: 12px; font-weight: 200;" fill="rgb(50, 49, 63)" stroke="none" stroke-width="1px">50</text><text x="182" y="0" dx="0em" dy="0.95em" style="text-anchor: middle; visibility: inherit; font-family: &quot;Helvetica Neue&quot;, sans-serif; font-size: 12px; font-weight: 200;" fill="rgb(50, 49, 63)" stroke="none" stroke-width="1px">60</text><text x="208" y="0" dx="0em" dy="0.95em" style="text-anchor: middle; visibility: inherit; font-family: &quot;Helvetica Neue&quot;, sans-serif; font-size: 12px; font-weight: 200;" fill="rgb(50, 49, 63)" stroke="none" stroke-width="1px">70</text><text x="234" y="0" dx="0em" dy="0.95em" style="text-anchor: middle; visibility: inherit; font-family: &quot;Helvetica Neue&quot;, sans-serif; font-size: 12px; font-weight: 200;" fill="rgb(50, 49, 63)" stroke="none" stroke-width="1px">80</text><text x="260" y="0" dx="0em" dy="0.95em" style="text-anchor: middle; visibility: hidden; font-family: &quot;Helvetica Neue&quot;, sans-serif; font-size: 12px; font-weight: 200;" fill="rgb(50, 49, 63)" stroke="none" stroke-width="1px">90</text></g><line x1="0" y1="0" x2="260" y2="0" fill="rgb(0, 0, 0)" stroke="rgb(204, 204, 204)" stroke-width="1px"></line></g></g></g></g></svg>