<svg viewBox="0 0 330 200" xmlns="http://www.w3.org/2000/svg"><g><g><g><g><g><line x1="70" y1="178" x2="65" y2="178" style="visibility: inherit;" fill="rgb(0, 0, 0)" stroke="rgb(204, 204, 204)" stroke-width="1px"></line><line x1="70" y1="164.30769230769232" x2="65" y2="164.30769230769232" style="visibility: inherit;" fill="rgb(0, 0, 0)" stroke="rgb(204, 204, 204)" stroke-width="1px"></line><line x1="70" y1="150.6153846153846" x2="65" y2="150.6153846153846" style="visibility: inherit;" fill="rgb(0, 0, 0)" stroke="rgb(204, 204, 204)" stroke-width="1px"></line><line x1="70" y1="136.9230769230769" x2="65" y2="136.9230769230769" style="visibility: inherit;" fill="rgb(0, 0, 0)" stroke="rgb(204, 204, 204)" stroke-width="1px"></line><line x1="70" y1="123.23076923076923" x2="65" y2="123.23076923076923" style="visibility: inherit;" fill="rgb(0, 0, 0)" stroke="rgb(204, 204, 204)" stroke-width="1px"></line><line x1="70" y1="109.53846153846153" x2="65" y2="109.53846153846153" style="visibility: inherit;" fill="rgb(0, 0, 0)" stroke="rgb(204, 204, 204)" stroke-width="1px"></line><line x1="70" y1="95.84615384615384" x2="65" y2="95.84615384615384" style="visibility: inherit;" fill="rgb(0, 0, 0)" stroke="rgb(204, 204, 204)" stroke-width="1px"></line><line x1="70" y1="82.15384615384616" x2="65" y2="82.15384615384616" style="visibility: inherit;" fill="rgb(0, 0, 0)" stroke="rgb(204, 204, 204)" stroke-width="1px"></line><line x1="70" y1="68.46153846153845" x2="65" y2="68.46153846153845" style="visibility: inherit;" fill="rgb(0, 0, 0)" stroke="rgb(204, 204, 204)" stroke-width="1px"></line><line x1="70" y1="54.769230769230774" x2="65" y2="54.769230769230774" style="visibility: inherit;" fill="rgb(0, 0, 0)" stroke="rgb(204, 204, 204)" stroke-width="1px"></line><line x1="70" y1="41.076923076923066" x2="65" y2="41.076923076923066" style="visibility: inherit;" fill="rgb(0, 0, 0)" stroke="rgb(204, 204, 204)" stroke-width="1px"></line><line x1="70" y1="27.384615384615387" x2="65" y2="27.384615384615387" style="visibility: inherit;" fill="rgb(0, 0, 0)" stroke="rgb(204, 204, 204)" stroke-width="1px"></line><line x1="70" y1="13.69230769230768" x2="65" y2="13.69230769230768" style="visibility: inherit;" fill="rgb(0, 0, 0)" stroke="rgb(204, 204, 204)" stroke-width="1px"></line><line x1="70" y1="0" x2="65" y2="0" style="visibility: inherit;" fill="rgb(0, 0, 0)" stroke="rgb(204, 204, 204)" stroke-width="1px"></line></g><g transform="translate(60, 0)"><text x="0" y="178" dx="0em" dy="0.3em" style="text-anchor: end; visibility: hidden; font-family: &quot;Helvetica Neue&quot;, sans-serif; font-size: 12px; font-weight: 200;" fill="rgb(50, 49, 63)" stroke="none" stroke-width="1px">-200</text><text x="0" y="164.30769230769232" dx="0em" dy="0.3em" style="text-anchor: end; visibility: inherit; font-family: &quot;Helvetica Neue&quot;, sans-serif; font-size: 12px; font-weight: 200;" fill="rgb(50, 49, 63)" stroke="none" stroke-width="1px">0</text><text x="0" y="150.6153846153846" dx="0em" dy="0.3em" style="text-anchor: end; visibility: hidden; font-family: &quot;Helvetica Neue&quot;, sans-serif; font-size: 12px; font-weight: 200;" fill="rgb(50, 49, 63)" stroke="none" stroke-width="1px">200</text><text x="0" y="136.9230769230769" dx="0em" dy="0.3em" style="text-anchor: end; visibility: inherit; font-family: &quot;Helvetica Neue&quot;, sans-serif; font-size: 12px; font-weight: 200;" fill="rgb(50, 49, 63)" stroke="none" stroke-width="1px">400</text><text x="0" y="123.23076923076923" dx="0em" dy="0.3em" style="text-anchor: end; visibility: hidden; font-family: &quot;Helvetica Neue&quot;, sans-serif; font-size: 12px; font-weight: 200;" fill="rgb(50, 49, 63)" stroke="none" stroke-width="1px">600</text><text x="0" y="109.53846153846153" dx="0em" dy="0.3em" style="text-anchor: end; visibility: inherit; font-family: &quot;Helvetica Neue&quot;, sans-serif; font-size: 12px; font-weight: 200;" fill="rgb(50, 49, 63)" stroke="none" stroke-width="1px">800</text><text x="0" y="95.84615384615384" dx="0em" dy="0.3em" style="text-anchor: end; visibility: hidden; font-family: &quot;Helvetica Neue&quot;, sans-serif; font-size: 12px; font-weight: 200;" fill="rgb(50, 49, 63)" stroke="none" stroke-width="1px">1e+3</text><text x="0" y="82.15384615384616" dx="0em" dy="0.3em" style="text-anchor: end; visibility: inherit; font-family: &quot;Helvetica Neue&quot;, sans-serif; font-size: 12px; font-weight: 200;" fill="rgb(50, 49, 63)" stroke="none" stroke-width="1px">1.2e+3</text><text x="0" y="68.46153846153845" dx="0em" dy="0.3em" style="text-anchor: end; visibility: hidden; font-family: &quot;Helvetica Neue&quot;, sans-serif; font-size: 12px; font-weight: 200;" fill="rgb(50, 49, 63)" stroke="none" stroke-width="1px">1.4e+3</text><text x="0" y="54.769230769230774" dx="0em" dy="0.3em" style="text-anchor: end; visibility: inherit; font-family: &quot;Helvetica Neue&quot;, sans-serif; font-size: 12px; font-weight: 200;" fill="rgb(50, 49, 63)" stroke="none" stroke-width="1px">1.6e+3</text><text x="0" y="41.076923076923066" dx="0em" dy="0.3em" style="text-anchor: end; visibility: hidden; font-family: &quot;Helvetica Neue&quot;, sans-serif; font-size: 12px; font-weight: 200;" fill="rgb(50, 49, 63)" stroke="none" stroke-width="1px">1.8e+3</text><text x="0" y="27.384615384615387" dx="0em" dy="0.3em" style="text-anchor: end; visibility: inherit; font-family: &quot;Helvetica Neue&quot;, sans-serif; font-size: 12px; font-weight: 200;" fill="rgb(50, 49, 63)" stroke="none" stroke-width="1px">2e+3</text><text x="0" y="13.69230769230768" dx="0em" dy="0.3em" style="text-anchor: end; visibility: hidden; font-family: &quot;Helvetica Neue&quot;, sans-serif; font-size: 12px; font-weight: 200;" fill="rgb(50, 49, 63)" stroke="none" stroke-width="1px">2.2e+3</text><text x="0" y="0" dx="0em" dy="0.3em" style="text-anchor: end; visibility: hidden; font-family: &quot;Helvetica Neue&quot;, sans-serif; font-size: 12px; font-weight: 200;" fill="rgb(50, 49, 63)" stroke="none" stroke-width="1px">2.4e+3</text></g><line x1="70" y1="0" x2="70" y2="178" fill="rgb(0, 0, 0)" stroke="rgb(204, 204, 204)" stroke-width="1px"></line></g></g><g transform="translate(70, 0)" clip-path="url(#clip_0)"><clipPath id="clip_0"><rect width="260" height="178"></rect></clipPath><g><g><g><line x1="0" y1="0" x2="0" y2="178" fill="rgb(0, 0, 0)" stroke="rgb(60, 60, 60)" stroke-width="1px" opacity="0.25"></line><line x1="26" y1="0" x2="26" y2="178" fill="rgb(0, 0, 0)" stroke="rgb(60, 60, 60)" stroke-width="1px" opacity="0.25"></line><line x1="52" y1="0" x2="52" y2="178" fill="rgb(0, 0, 0)" stroke="rgb(60, 60, 60)" stroke-width="1px" opacity="0.25"></line><line x1="78" y1="0" x2="78" y2="178" fill="rgb(0, 0, 0)" stroke="rgb(60, 60, 60)" stroke-width="1px" opacity="0.25"></line><line x1="104" y1="0" x2="104" y2="178" fill="rgb(0, 0, 0)" stroke="rgb(60, 60, 60)" stroke-width="1px" opacity="0.25"></line><line x1="130" y1="0" x2="130" y2="178" fill="rgb(0, 0, 0)" stroke="rgb(60, 60, 60)" stroke-width="1px" opacity="0.25"></line><line x1="156" y1="0" x2="156" y2="178" fill="rgb(0, 0, 0)" stroke="rgb(60, 60, 60)" stroke-width="1px" opacity="0.25"></line><line x1="182" y1="0" x2="182" y2="178" fill="rgb(0, 0, 0)" stroke="rgb(60, 60, 60)" stroke-width="1px" opacity="0.25"></line><line x1="208" y1="0" x2="208" y2="178" fill="rgb(0, 0, 0)" stroke="rgb(60, 60, 60)" stroke-width="1px" opacity="0.25"></line><line x1="234" y1="0" x2="234" y2="178" fill="rgb(0, 0, 0)" stroke="rgb(60, 60, 60)" stroke-width="1px" opacity="0.25"></line><line x1="260" y1="0" x2="260" y2="178" fill="rgb(0, 0, 0)" stroke="rgb(60, 60, 60)" stroke-width="1px" opacity="0.25"></line></g><g><line x1="0" y1="178" x2="260" y2="178" fill="rgb(0, 0, 0)" stroke="rgb(60, 60, 60)" stroke-width="1px" opacity="0.25"></line><line x1="0" y1="164.30769230769232" x2="260" y2="164.30769230769232" fill="rgb(0, 0, 0)" stroke="rgb(60, 60, 60)" stroke-width="1px" opacity="0.25"></line><line x1="0" y1="150.6153846153846" x2="260" y2="150.6153846153846" fill="rgb(0, 0, 0)" stroke="rgb(60, 60, 60)" stroke-width="1px" opacity="0.25"></line><line x1="0" y1="136.9230769230769" x2="260" y2="136.9230769230769" fill="rgb(0, 0, 0)" stroke="rgb(60, 60, 60)" stroke-width="1px" opacity="0.25"></line><line x1="0" y1="123.23076923076923" x2="260" y2="123.23076923076923" fill="rgb(0, 0, 0)" stroke="rgb(60, 60, 60)" stroke-width="1px" opacity="0.25"></line><line x1="0" y1="109.53846153846153" x2="260" y2="109.53846153846153" fill="rgb(0, 0, 0)" stroke="rgb(60, 60, 60)" stroke-width="1px" opacity="0.25"></line><line x1="0" y1="95.84615384615384" x2="260" y2="95.84615384615384" fill="rgb(0, 0, 0)" stroke="rgb(60, 60, 60)" stroke-width="1px" opacity="0.25"></line><line x1="0" y1="82.15384615384616" x2="260" y2="82.15384615384616" fill="rgb(0, 0, 0)" stroke="rgb(60, 60, 60)" stroke-width="1px" opacity="0.25"></line><line x1="0" y1="68.46153846153845" x2="260" y2="68.46153846153845" fill="rgb(0, 0, 0)" stroke="rgb(60, 60, 60)" stroke-width="1px" opacity="0.25"></line><line x1="0" y1="54.769230769230774" x2="260" y2="54.769230769230774" fill="rgb(0, 0, 0)" stroke="rgb(60, 60, 60)" stroke-width="1px" opacity="0.25"></line><line x1="0" y1="41.076923076923066" x2="260" y2="41.076923076923066" fill="rgb(0, 0, 0)" stroke="rgb(60, 60, 60)" stroke-width="1px" opacity="0.25"></line><line x1="0" y1="27.384615384615387" x2="260" y2="27.384615384615387" fill="rgb(0, 0, 0)" stroke="rgb(60, 60, 60)" stroke-width="1px" opacity="0.25"></line><line x1="0" y1="13.69230769230768" x2="260" y2="13.69230769230768" fill="rgb(0, 0, 0)" stroke="rgb(60, 60, 60)" stroke-width="1px" opacity="0.25"></line><line x1="0" y1="0" x2="260" y2="0" fill="rgb(0, 0, 0)" stroke="rgb(60, 60, 60)" stroke-width="1px" opacity="0.25"></line></g></g></g><g><g><line x1="0" y1="164.30769230769232" x2="260" y2="164.30769230769232" fill="rgb(0, 0, 0)" stroke="rgb(153, 153, 153)" stroke-width="1.5px"></line></g></g><g><g><line x1="26" y1="0" x2="26" y2="178" fill="rgb(0, 0, 0)" stroke="rgb(153, 153, 153)" stroke-width="1.5px"></line></g></g><g><g><g><g><g><path stroke="rgb(0, 119, 187)" stroke-width="2px" d="M31.2,-34.59956285797071L33.800000000000004,0.5951567937238451L36.400000000000006,32.630600831081665L39,57.428071782631335L41.6,78.02035883040186L44.2,95.06180269275708L46.8,107.56152636807757L49.4,117.09798705451911L52,125.49224263577388L54.6,131.89605708588815L57.2,136.65995831611326L59.800000000000004,140.43258270486209L62.4,143.5078905167994L65,145.75278009838456L67.60000000000001,147.5916626042893L70.2,149.04314346780833L72.80000000000001,150.3904174438371L75.39999999999999,151.38766981504918L78,152.30869809174092L80.6,153.08418698076872L83.2,153.61016743716465L85.8,154.1659303380531L88.4,154.49864051798977L91,154.88236870465943L93.6,155.1801395826995L96.2,155.42528807919416L98.8,155.74269862036167L101.4,155.93239231126495L104,156.11959427201694L106.6,156.49384644144064L109.2,156.65723738175618L111.8,156.89458474072927L114.4,157.11016184010563L117,157.26436280342656L119.60000000000001,157.3479763603641L122.19999999999999,157.47539459073005L124.8,157.61725755365734L127.39999999999999,157.73772971546092L130,157.80212639697393L132.6,157.87683207037927L135.20000000000002,157.99937795695644L137.8,158.14211666114272L140.4,158.1639637081888L143,158.30438390588657L145.60000000000002,158.35628853257384L148.2,158.53933389882653L150.79999999999998,158.59613831724891L153.4,158.64842424119487L156,158.72441175062173L158.6,159.1367103555688L161.2,159.90958677430268L163.8,160.71188510244303L166.4,161.15366816262483L169,161.55073058296227L171.6,161.881770107543L174.20000000000002,162.10133823100156L176.8,162.2675505071716L179.39999999999998,162.3694350026015L182,162.41782333570958L184.6,162.4472143859942L187.2,162.45265299882627L189.79999999999998,162.44497058347545L192.4,162.397545773242L195,162.48665871417995L197.6,162.49720670593436L200.20000000000002,162.55660238612822L202.8,162.61543226860977L205.4,162.54364335035325L208,162.56572822893378L210.60000000000002,162.52141943024733L213.2,162.49885674695454L215.79999999999998,162.58788096911343L218.4,162.60690297064698L221,162.60499032364797L223.6,162.51652982933L226.2,162.5281803258817L228.8,162.57058857436954L231.4,162.62526438365887L234,162.52500846140964L236.6,162.52833299057025L239.20000000000002,162.54886819080775L241.8,162.5552442637184" style="fill: none;" fill="none"></path></g><g><path stroke="rgb(255, 112, 67)" stroke-width="2px" d="M36.400000000000006,-1.7912209694472097L39,28.483212472751262L41.6,54.57430589564038L44.2,75.86689953216467L46.8,93.33676516290403L49.4,106.99543242847149L52,117.4801779320521L54.6,125.3156896115369L57.2,131.80347511812133L59.800000000000004,136.5473619042703L62.4,140.23001920307598L65,143.05486290344L67.60000000000001,145.41465073244234L70.2,147.28479591839226L72.80000000000001,148.83188029017407L75.39999999999999,149.96241224026517L78,151.14541094578368L80.6,152.0723779465529L83.2,152.72069167226624L85.8,153.41979207178585L88.4,153.9836507953944L91,154.37073766510522L93.6,154.84458751435113L96.2,155.1409754595511L98.8,155.408906269133L101.4,155.71251279034433L104,155.97494055391175L106.6,156.3335980372736L109.2,156.52716511353344L111.8,156.6448844315064L114.4,156.84580646989988L117,157.09808798234857L119.60000000000001,157.28081427031384L122.19999999999999,157.4551498318035L124.8,157.5305183754369L127.39999999999999,157.64534701033526L130,157.7676246773404L132.6,157.8894500459085L135.20000000000002,157.9809961196313L137.8,158.10478686200457L140.4,158.27033987657242L143,158.40646474795463L145.60000000000002,158.52432287249638L148.2,158.60290242523487L150.79999999999998,158.70226169064406L153.4,158.79179073020748L156,158.8044124273448L158.6,159.7239955962458L161.2,160.63798795387476L163.8,161.30903065391266L166.4,161.73770233963228L169,162.0824027406372L171.6,162.33296248319323L174.20000000000002,162.45935475807627L176.8,162.57088505990512L179.39999999999998,162.6419379268122L182,162.7111240867946L184.6,162.75582318888377L187.2,162.80460547855336L189.79999999999998,162.8539884065027L192.4,162.87891059679094L195,162.9282113142701L197.6,162.94753019209364L200.20000000000002,162.96974759864054L202.8,162.9662581344266L205.4,162.9832411524408L208,162.97576395638993L210.60000000000002,163.00212586310585L213.2,162.9999031159658L215.79999999999998,163.00912148254616L218.4,162.99375405795186L221,162.991910747642L223.6,163.03452164694949L226.2,163.0280178376476L228.8,163.01682056856944L231.4,163.020426803821L234,163.03461252525761L236.6,163.01884537136513L239.20000000000002,163.02348161023738L241.8,163.04362657905747" style="fill: none;" fill="none"></path></g></g></g></g><g opacity="0.2"><g><g><g><path stroke="rgb(0, 119, 187)" stroke-width="2px" d="M28.6,-52.23152400090143L31.2,7.815111929086527L33.800000000000004,41.9841471041166L36.400000000000006,74.45607656625602L39,91.73190119816707L41.6,107.4676587853065L44.2,119.9083914419321L46.8,125.99619084284856L49.4,131.25851975661058L52,138.00749072735127L54.6,141.4669294856145L57.2,143.79025519737831L59.800000000000004,146.0841283240685L62.4,148.11723732581504L65,149.11853120070236L67.60000000000001,150.34920820969802L70.2,151.21999623225287L72.80000000000001,152.41112316425028L75.39999999999999,152.88345721905048L78,153.6901899953989L80.6,154.24739479651817L83.2,154.399127737192L85.8,154.99956810584436L88.4,154.99770342313326L91,155.45795934823843L93.6,155.62679513784556L96.2,155.79301044757548L98.8,156.21881413973296L101.4,156.21693274277908L104,156.4003971510667L106.6,157.05522462111253L109.2,156.90232377272386L111.8,157.25060576218826L114.4,157.43352747990534L117,157.4956642444317L119.60000000000001,157.47339669447678L122.19999999999999,157.66652193509614L124.8,157.83005199725812L127.39999999999999,157.91843795776367L130,157.89872141911434L132.6,157.9888905803974L135.20000000000002,158.1831967867338L137.8,158.35622471736028L140.4,158.19673427875225L143,158.51501420241135L145.60000000000002,158.4341454725999L148.2,158.81390194819522L150.79999999999998,158.68134494488055L153.4,158.72685312711275L156,158.83839301476112L158.6,159.7551582629864L161.2,161.0689014024001L163.8,161.91533259465143L166.4,161.81634275289682L169,162.14632421346812L171.6,162.37832939441387L174.20000000000002,162.43069041618935L176.8,162.51686892142664L179.39999999999998,162.5222617457463L182,162.49040583537175L184.6,162.49130096142108L187.2,162.4608109180744L189.79999999999998,162.43344696044923L192.4,162.32640855789185L195,162.62032812558687L197.6,162.51302869356596L200.20000000000002,162.645695906419L202.8,162.7036770923321L205.4,162.43595997296848L208,162.59885554680457L210.60000000000002,162.45495623221765L213.2,162.4650127220154L215.79999999999998,162.72141730235174L218.4,162.63543597294733L221,162.6021213531494L223.6,162.38383908785306L226.2,162.54565607070924L228.8,162.6342009471013L231.4,162.70727809759288L234,162.3746245780358L236.6,162.53331978431115L239.20000000000002,162.579670991164L241.8,162.56480837308445" style="fill: none;" fill="none"></path></g><g><path stroke="rgb(255, 112, 67)" stroke-width="2px" d="M31.2,-32.527638033353384L33.800000000000004,8.78463829627404L36.400000000000006,53.56153479942908L39,70.36365271935095L41.6,91.88498694786658L44.2,106.911705463116L46.8,119.10142362154448L49.4,127.2769614821214L52,133.11220031738281L54.6,137.02631662222055L57.2,141.51396963266225L59.800000000000004,143.65389831542967L62.4,145.7496763258714L65,147.29013615534856L67.60000000000001,148.95333389282226L70.2,150.08953886765698L72.80000000000001,151.15227116511417L75.39999999999999,151.6581068303035L78,152.91984412560095L80.6,153.46279794546274L83.2,153.6931494610126L85.8,154.46843438955455L88.4,154.82943487314077L91,154.95136631892277L93.6,155.5553610757681L96.2,155.58555692232574L98.8,155.81080223670372L101.4,156.1679224043626L104,156.36858211223895L106.6,156.87158419095553L109.2,156.8175157048152L111.8,156.8214634000338L114.4,157.14718951885516L117,157.47651024451622L119.60000000000001,157.55490369943473L122.19999999999999,157.71665317241963L124.8,157.64357119046724L127.39999999999999,157.81758996229905L130,157.95104117760292L132.6,158.07218809861405L135.20000000000002,158.11831523014948L137.8,158.29047297551082L140.4,158.51866939838115L143,158.61065205500677L145.60000000000002,158.701110059298L148.2,158.7207717543382L150.79999999999998,158.8513005887545L153.4,158.92608428955077L156,158.82334497305064L158.6,161.1033703495906L161.2,162.00897649031418L163.8,162.31559470396775L166.4,162.380709868211L169,162.5994533421443L171.6,162.70880209702713L174.20000000000002,162.64894317040077L176.8,162.73818051264837L179.39999999999998,162.74851722717284L182,162.81490332676813L184.6,162.82287184201755L187.2,162.87777891305777L189.79999999999998,162.9280627984267L192.4,162.91629388222327L195,163.00216239048885L197.6,162.97650850882897L200.20000000000002,163.00307370846087L202.8,162.96102393810565L205.4,163.00871567946214L208,162.9645481623136L210.60000000000002,163.04166872317975L213.2,162.9965689952557L215.79999999999998,163.0229490324167L218.4,162.97070292106042L221,162.98914578217727L223.6,163.09843799591064L226.2,163.0182621236948L228.8,163.0000246649522L231.4,163.02583615669838L234,163.0558911074125L236.6,162.9951946405264L239.20000000000002,163.03043596854576L241.8,163.0738440322876" style="fill: none;" fill="none"></path></g></g></g></g></g></g><g transform="translate(70, 178)" clip-path="url(#clip_1)"><clipPath id="clip_1"><rect width="260" height="22"></rect></clipPath><g><g><line x1="0" y1="0" x2="0" y2="5" style="visibility: inherit;" fill="rgb(0, 0, 0)" stroke="rgb(204, 204, 204)" stroke-width="1px"></line><line x1="26" y1="0" x2="26" y2="5" style="visibility: inherit;" fill="rgb(0, 0, 0)" stroke="rgb(204, 204, 204)" stroke-width="1px"></line><line x1="52" y1="0" x2="52" y2="5" style="visibility: inherit;" fill="rgb(0, 0, 0)" stroke="rgb(204, 204, 204)" stroke-width="1px"></line><line x1="78" y1="0" x2="78" y2="5" style="visibility: inherit;" fill="rgb(0, 0, 0)" stroke="rgb(204, 204, 204)" stroke-width="1px"></line><line x1="104" y1="0" x2="104" y2="5" style="visibility: inherit;" fill="rgb(0, 0, 0)" stroke="rgb(204, 204, 204)" stroke-width="1px"></line><line x1="130" y1="0" x2="130" y2="5" style="visibility: inherit;" fill="rgb(0, 0, 0)" stroke="rgb(204, 204, 204)" stroke-width="1px"></line><line x1="156" y1="0" x2="156" y2="5" style="visibility: inherit;" fill="rgb(0, 0, 0)" stroke="rgb(204, 204, 204)" stroke-width="1px"></line><line x1="182" y1="0" x2="182" y2="5" style="visibility: inherit;" fill="rgb(0, 0, 0)" stroke="rgb(204, 204, 204)" stroke-width="1px"></line><line x1="208" y1="0" x2="208" y2="5" style="visibility: inherit;" fill="rgb(0, 0, 0)" stroke="rgb(204, 204, 204)" stroke-width="1px"></line><line x1="234" y1="0" x2="234" y2="5" style="visibility: inherit;" fill="rgb(0, 0, 0)" stroke="rgb(204, 204, 204)" stroke-width="1px"></line><line x1="260" y1="0" x2="260" y2="5" style="visibility: inherit;" fill="rgb(0, 0, 0)" stroke="rgb(204, 204, 204)" stroke-width="1px"></line></g><g transform="translate(0, 8)"><text x="0" y="0" dx="0em" dy="0.95em" style="text-anchor: middle; visibility: hidden; font-family: &quot;Helvetica Neue&quot;, sans-serif; font-size: 12px; font-weight: 200;" fill="rgb(50, 49, 63)" stroke="none" stroke-width="1px">-10</text><text x="26" y="0" dx="0em" dy="0.95em" style="text-anchor: middle; visibility: inherit; font-family: &quot;Helvetica Neue&quot;, sans-serif; font-size: 12px; font-weight: 200;" fill="rgb(50, 49, 63)" stroke="none" stroke-width="1px">0</text><text x="52" y="0" dx="0em" dy="0.95em" style="text-anchor: middle; visibility: inherit; font-family: &quot;Helvetica Neue&quot;, sans-serif; font-size: 12px; font-weight: 200;" fill="rgb(50, 49, 63)" stroke="none" stroke-width="1px">10</text><text x="78" y="0" dx="0em" dy="0.95em" style="text-anchor: middle; visibility: inherit; font-family: &quot;Helvetica Neue&quot;, sans-serif; font-size: 12px; font-weight: 200;" fill="rgb(50, 49, 63)" stroke="none" stroke-width="1px">20</text><text x="104" y="0" dx="0em" dy="0.95em" style="text-anchor: middle; visibility: inherit; font-family: &quot;Helvetica Neue&quot;, sans-serif; font-size: 12px; font-weight: 200;" fill="rgb(50, 49, 63)" stroke="none" stroke-width="1px">30</text><text x="130" y="0" dx="0em" dy="0.95em" style="text-anchor: middle; visibility: inherit; font-family: &quot;Helvetica Neue&quot;, sans-serif; font-size: 12px; font-weight: 200;" fill="rgb(50, 49, 63)" stroke="none" stroke-width="1px">40</text><text x="156" y="0" dx="0em" dy="0.95em" style="text-anchor: middle; visibility: inherit; font-family: &quot;Helvetica Neue&quot;, sans-serif; font-size: 12px; font-weight: 200;" fill="rgb(50, 49, 63)" stroke="none" stroke-width="1px">50</text><text x="182" y="0" dx="0em" dy="0.95em" style="text-anchor: middle; visibility: inherit; font-family: &quot;Helvetica Neue&quot;, sans-serif; font-size: 12px; font-weight: 200;" fill="rgb(50, 49, 63)" stroke="none" stroke-width="1px">60</text><text x="208" y="0" dx="0em" dy="0.95em" style="text-anchor: middle; visibility: inherit; font-family: &quot;Helvetica Neue&quot;, sans-serif; font-size: 12px; font-weight: 200;" fill="rgb(50, 49, 63)" stroke="none" stroke-width="1px">70</text><text x="234" y="0" dx="0em" dy="0.95em" style="text-anchor: middle; visibility: inherit; font-family: &quot;Helvetica Neue&quot;, sans-serif; font-size: 12px; font-weight: 200;" fill="rgb(50, 49, 63)" stroke="none" stroke-width="1px">80</text><text x="260" y="0" dx="0em" dy="0.95em" style="text-anchor: middle; visibility: hidden; font-family: &quot;Helvetica Neue&quot;, sans-serif; font-size: 12px; font-weight: 200;" fill="rgb(50, 49, 63)" stroke="none" stroke-width="1px">90</text></g><line x1="0" y1="0" x2="260" y2="0" fill="rgb(0, 0, 0)" stroke="rgb(204, 204, 204)" stroke-width="1px"></line></g></g></g></g></svg>