<svg viewBox="0 0 330 200" xmlns="http://www.w3.org/2000/svg"><g><g><g><g><g><line x1="70" y1="178" x2="65" y2="178" style="visibility: inherit;" fill="rgb(0, 0, 0)" stroke="rgb(204, 204, 204)" stroke-width="1px"></line><line x1="70" y1="161.8181818181818" x2="65" y2="161.8181818181818" style="visibility: inherit;" fill="rgb(0, 0, 0)" stroke="rgb(204, 204, 204)" stroke-width="1px"></line><line x1="70" y1="145.63636363636363" x2="65" y2="145.63636363636363" style="visibility: inherit;" fill="rgb(0, 0, 0)" stroke="rgb(204, 204, 204)" stroke-width="1px"></line><line x1="70" y1="129.45454545454547" x2="65" y2="129.45454545454547" style="visibility: inherit;" fill="rgb(0, 0, 0)" stroke="rgb(204, 204, 204)" stroke-width="1px"></line><line x1="70" y1="113.27272727272727" x2="65" y2="113.27272727272727" style="visibility: inherit;" fill="rgb(0, 0, 0)" stroke="rgb(204, 204, 204)" stroke-width="1px"></line><line x1="70" y1="97.0909090909091" x2="65" y2="97.0909090909091" style="visibility: inherit;" fill="rgb(0, 0, 0)" stroke="rgb(204, 204, 204)" stroke-width="1px"></line><line x1="70" y1="80.90909090909092" x2="65" y2="80.90909090909092" style="visibility: inherit;" fill="rgb(0, 0, 0)" stroke="rgb(204, 204, 204)" stroke-width="1px"></line><line x1="70" y1="64.72727272727273" x2="65" y2="64.72727272727273" style="visibility: inherit;" fill="rgb(0, 0, 0)" stroke="rgb(204, 204, 204)" stroke-width="1px"></line><line x1="70" y1="48.54545454545453" x2="65" y2="48.54545454545453" style="visibility: inherit;" fill="rgb(0, 0, 0)" stroke="rgb(204, 204, 204)" stroke-width="1px"></line><line x1="70" y1="32.363636363636346" x2="65" y2="32.363636363636346" style="visibility: inherit;" fill="rgb(0, 0, 0)" stroke="rgb(204, 204, 204)" stroke-width="1px"></line><line x1="70" y1="16.181818181818187" x2="65" y2="16.181818181818187" style="visibility: inherit;" fill="rgb(0, 0, 0)" stroke="rgb(204, 204, 204)" stroke-width="1px"></line><line x1="70" y1="0" x2="65" y2="0" style="visibility: inherit;" fill="rgb(0, 0, 0)" stroke="rgb(204, 204, 204)" stroke-width="1px"></line></g><g transform="translate(60, 0)"><text x="0" y="178" dx="0em" dy="0.3em" style="text-anchor: end; visibility: hidden; font-family: &quot;Helvetica Neue&quot;, sans-serif; font-size: 12px; font-weight: 200;" fill="rgb(50, 49, 63)" stroke="none" stroke-width="1px">-200</text><text x="0" y="161.8181818181818" dx="0em" dy="0.3em" style="text-anchor: end; visibility: inherit; font-family: &quot;Helvetica Neue&quot;, sans-serif; font-size: 12px; font-weight: 200;" fill="rgb(50, 49, 63)" stroke="none" stroke-width="1px">0</text><text x="0" y="145.63636363636363" dx="0em" dy="0.3em" style="text-anchor: end; visibility: hidden; font-family: &quot;Helvetica Neue&quot;, sans-serif; font-size: 12px; font-weight: 200;" fill="rgb(50, 49, 63)" stroke="none" stroke-width="1px">200</text><text x="0" y="129.45454545454547" dx="0em" dy="0.3em" style="text-anchor: end; visibility: inherit; font-family: &quot;Helvetica Neue&quot;, sans-serif; font-size: 12px; font-weight: 200;" fill="rgb(50, 49, 63)" stroke="none" stroke-width="1px">400</text><text x="0" y="113.27272727272727" dx="0em" dy="0.3em" style="text-anchor: end; visibility: hidden; font-family: &quot;Helvetica Neue&quot;, sans-serif; font-size: 12px; font-weight: 200;" fill="rgb(50, 49, 63)" stroke="none" stroke-width="1px">600</text><text x="0" y="97.0909090909091" dx="0em" dy="0.3em" style="text-anchor: end; visibility: inherit; font-family: &quot;Helvetica Neue&quot;, sans-serif; font-size: 12px; font-weight: 200;" fill="rgb(50, 49, 63)" stroke="none" stroke-width="1px">800</text><text x="0" y="80.90909090909092" dx="0em" dy="0.3em" style="text-anchor: end; visibility: hidden; font-family: &quot;Helvetica Neue&quot;, sans-serif; font-size: 12px; font-weight: 200;" fill="rgb(50, 49, 63)" stroke="none" stroke-width="1px">1e+3</text><text x="0" y="64.72727272727273" dx="0em" dy="0.3em" style="text-anchor: end; visibility: inherit; font-family: &quot;Helvetica Neue&quot;, sans-serif; font-size: 12px; font-weight: 200;" fill="rgb(50, 49, 63)" stroke="none" stroke-width="1px">1.2e+3</text><text x="0" y="48.54545454545453" dx="0em" dy="0.3em" style="text-anchor: end; visibility: hidden; font-family: &quot;Helvetica Neue&quot;, sans-serif; font-size: 12px; font-weight: 200;" fill="rgb(50, 49, 63)" stroke="none" stroke-width="1px">1.4e+3</text><text x="0" y="32.363636363636346" dx="0em" dy="0.3em" style="text-anchor: end; visibility: inherit; font-family: &quot;Helvetica Neue&quot;, sans-serif; font-size: 12px; font-weight: 200;" fill="rgb(50, 49, 63)" stroke="none" stroke-width="1px">1.6e+3</text><text x="0" y="16.181818181818187" dx="0em" dy="0.3em" style="text-anchor: end; visibility: hidden; font-family: &quot;Helvetica Neue&quot;, sans-serif; font-size: 12px; font-weight: 200;" fill="rgb(50, 49, 63)" stroke="none" stroke-width="1px">1.8e+3</text><text x="0" y="0" dx="0em" dy="0.3em" style="text-anchor: end; visibility: hidden; font-family: &quot;Helvetica Neue&quot;, sans-serif; font-size: 12px; font-weight: 200;" fill="rgb(50, 49, 63)" stroke="none" stroke-width="1px">2e+3</text></g><line x1="70" y1="0" x2="70" y2="178" fill="rgb(0, 0, 0)" stroke="rgb(204, 204, 204)" stroke-width="1px"></line></g></g><g transform="translate(70, 0)" clip-path="url(#clip_0)"><clipPath id="clip_0"><rect width="260" height="178"></rect></clipPath><g><g><g><line x1="0" y1="0" x2="0" y2="178" fill="rgb(0, 0, 0)" stroke="rgb(60, 60, 60)" stroke-width="1px" opacity="0.25"></line><line x1="28.888888888888886" y1="0" x2="28.888888888888886" y2="178" fill="rgb(0, 0, 0)" stroke="rgb(60, 60, 60)" stroke-width="1px" opacity="0.25"></line><line x1="57.77777777777777" y1="0" x2="57.77777777777777" y2="178" fill="rgb(0, 0, 0)" stroke="rgb(60, 60, 60)" stroke-width="1px" opacity="0.25"></line><line x1="86.66666666666666" y1="0" x2="86.66666666666666" y2="178" fill="rgb(0, 0, 0)" stroke="rgb(60, 60, 60)" stroke-width="1px" opacity="0.25"></line><line x1="115.55555555555554" y1="0" x2="115.55555555555554" y2="178" fill="rgb(0, 0, 0)" stroke="rgb(60, 60, 60)" stroke-width="1px" opacity="0.25"></line><line x1="144.44444444444446" y1="0" x2="144.44444444444446" y2="178" fill="rgb(0, 0, 0)" stroke="rgb(60, 60, 60)" stroke-width="1px" opacity="0.25"></line><line x1="173.33333333333331" y1="0" x2="173.33333333333331" y2="178" fill="rgb(0, 0, 0)" stroke="rgb(60, 60, 60)" stroke-width="1px" opacity="0.25"></line><line x1="202.22222222222223" y1="0" x2="202.22222222222223" y2="178" fill="rgb(0, 0, 0)" stroke="rgb(60, 60, 60)" stroke-width="1px" opacity="0.25"></line><line x1="231.1111111111111" y1="0" x2="231.1111111111111" y2="178" fill="rgb(0, 0, 0)" stroke="rgb(60, 60, 60)" stroke-width="1px" opacity="0.25"></line><line x1="260" y1="0" x2="260" y2="178" fill="rgb(0, 0, 0)" stroke="rgb(60, 60, 60)" stroke-width="1px" opacity="0.25"></line></g><g><line x1="0" y1="178" x2="260" y2="178" fill="rgb(0, 0, 0)" stroke="rgb(60, 60, 60)" stroke-width="1px" opacity="0.25"></line><line x1="0" y1="161.8181818181818" x2="260" y2="161.8181818181818" fill="rgb(0, 0, 0)" stroke="rgb(60, 60, 60)" stroke-width="1px" opacity="0.25"></line><line x1="0" y1="145.63636363636363" x2="260" y2="145.63636363636363" fill="rgb(0, 0, 0)" stroke="rgb(60, 60, 60)" stroke-width="1px" opacity="0.25"></line><line x1="0" y1="129.45454545454547" x2="260" y2="129.45454545454547" fill="rgb(0, 0, 0)" stroke="rgb(60, 60, 60)" stroke-width="1px" opacity="0.25"></line><line x1="0" y1="113.27272727272727" x2="260" y2="113.27272727272727" fill="rgb(0, 0, 0)" stroke="rgb(60, 60, 60)" stroke-width="1px" opacity="0.25"></line><line x1="0" y1="97.0909090909091" x2="260" y2="97.0909090909091" fill="rgb(0, 0, 0)" stroke="rgb(60, 60, 60)" stroke-width="1px" opacity="0.25"></line><line x1="0" y1="80.90909090909092" x2="260" y2="80.90909090909092" fill="rgb(0, 0, 0)" stroke="rgb(60, 60, 60)" stroke-width="1px" opacity="0.25"></line><line x1="0" y1="64.72727272727273" x2="260" y2="64.72727272727273" fill="rgb(0, 0, 0)" stroke="rgb(60, 60, 60)" stroke-width="1px" opacity="0.25"></line><line x1="0" y1="48.54545454545453" x2="260" y2="48.54545454545453" fill="rgb(0, 0, 0)" stroke="rgb(60, 60, 60)" stroke-width="1px" opacity="0.25"></line><line x1="0" y1="32.363636363636346" x2="260" y2="32.363636363636346" fill="rgb(0, 0, 0)" stroke="rgb(60, 60, 60)" stroke-width="1px" opacity="0.25"></line><line x1="0" y1="16.181818181818187" x2="260" y2="16.181818181818187" fill="rgb(0, 0, 0)" stroke="rgb(60, 60, 60)" stroke-width="1px" opacity="0.25"></line><line x1="0" y1="0" x2="260" y2="0" fill="rgb(0, 0, 0)" stroke="rgb(60, 60, 60)" stroke-width="1px" opacity="0.25"></line></g></g></g><g><g><line x1="0" y1="161.8181818181818" x2="260" y2="161.8181818181818" fill="rgb(0, 0, 0)" stroke="rgb(153, 153, 153)" stroke-width="1.5px"></line></g></g><g><g><line x1="28.888888888888886" y1="0" x2="28.888888888888886" y2="178" fill="rgb(0, 0, 0)" stroke="rgb(153, 153, 153)" stroke-width="1.5px"></line></g></g><g><g><g><g><g><path stroke="rgb(0, 119, 187)" stroke-width="2px" d="M34.666666666666664,-18.143019892704928L37.55555555555555,35.1846387991676L40.44444444444444,70.42430532662294L43.33333333333333,94.91200414584027L46.22222222222222,110.99012355657312L49.11111111111111,122.85778348941338L52,130.5203680312922L54.888888888888886,136.34253716541383L57.77777777777777,140.42004050893098L60.666666666666664,143.00511766992653L63.55555555555555,145.15549586097782L66.44444444444444,146.69035936936928L69.33333333333333,147.84639930541115L72.22222222222223,148.78125244112368L75.1111111111111,149.69493226538796L78,150.33185463364174L80.88888888888889,150.93835021310326L83.77777777777779,151.43958376547798L86.66666666666666,151.84586939034938L89.55555555555556,152.34153360145262L92.44444444444444,152.64732016431694L95.33333333333333,153.0910322459447L98.22222222222221,153.3062513015484L101.11111111111111,153.59715635639463L104,153.74311197025665L106.88888888888889,154.239266032538L109.77777777777777,154.59083958138217L112.66666666666667,154.95468722603943L115.55555555555554,155.08077301519003L118.44444444444444,155.2294503210799L121.33333333333333,155.5689218013211L124.22222222222223,155.58285448500044L127.1111111111111,155.7618513409834L130,155.81424544313649L132.88888888888889,155.97695818885265L135.7777777777778,156.01080276544366L138.66666666666666,156.1410545660505L141.55555555555554,156.32072003678988L144.44444444444446,156.34578058832273L147.33333333333334,156.31954730750425L150.2222222222222,156.4444281193131L153.11111111111111,156.59181935413517L156,156.7151878690968L158.8888888888889,156.85990430860312L161.77777777777777,157.00833278569567L164.66666666666666,157.107893387018L167.55555555555557,157.15482918295717L170.44444444444446,157.203171760152L173.33333333333331,157.19929860551855L176.22222222222223,158.01751729031102L179.11111111111111,158.61841991384387L182,159.14761797932937L184.88888888888889,159.51252103215464L187.77777777777777,159.66563694305106L190.66666666666666,159.7967456579294L193.55555555555557,159.85726313184037L196.44444444444443,159.95416969315232L199.33333333333334,159.99935584199224L202.22222222222223,160.07354266904144L205.11111111111111,160.06223569012005L208,160.07448741085938L210.88888888888889,160.0448665097647L213.77777777777777,160.09102148431117L216.66666666666669,160.10025294685002L219.55555555555554,160.116224413124L222.44444444444443,160.15757469137583L225.33333333333334,160.10129971705828L228.22222222222223,160.114080854932L231.1111111111111,160.11033638790926L234,160.12361337407745L236.88888888888889,160.08279596176337L239.7777777777778,160.06996471486985L242.66666666666666,160.08574344268035L245.55555555555554,160.13641782158965L248.44444444444446,160.135088877796L251.33333333333334,160.1416498239532" style="fill: none;" fill="none"></path></g><g><path stroke="rgb(255, 112, 67)" stroke-width="2px" d="M37.55555555555555,-22.896842514282866L40.44444444444444,34.05284608939732L43.33333333333333,72.13419241113759L46.22222222222222,96.97175666061175L49.11111111111111,113.57784474558842L52,124.7496862193706L54.888888888888886,132.19623462444815L57.77777777777777,137.57205809097957L60.666666666666664,141.4370058481676L63.55555555555555,144.1453289459831L66.44444444444444,145.90631493721042L69.33333333333333,147.43865362665431L72.22222222222223,148.7155109042039L75.1111111111111,149.75383392500783L78,150.40367516854926L80.88888888888889,151.05752682953786L83.77777777777779,151.57560478323686L86.66666666666666,152.04713841725473L89.55555555555556,152.5573004269242L92.44444444444444,152.98809229583244L95.33333333333333,153.3089572396768L98.22222222222221,153.71106785595902L101.11111111111111,153.98586558917938L104,154.3522832783373L106.88888888888889,154.66385940228034L109.77777777777777,154.89953956354435L112.66666666666667,155.03260879118199L115.55555555555554,155.2286934384806L118.44444444444444,155.39029309954242L121.33333333333333,155.62636428375131L124.22222222222223,155.8293569588571L127.1111111111111,155.98734856412753L130,156.13905939749873L132.88888888888889,156.2724616874649L135.7777777777778,156.37644442841457L138.66666666666666,156.5037077661746L141.55555555555554,156.6378802870481L144.44444444444446,156.7185567633802L147.33333333333334,156.82921496989113L150.2222222222222,156.9663252244281L153.11111111111111,157.00821201726578L156,157.16236184588462L158.8888888888889,157.16236456319706L161.77777777777777,157.23731660945867L164.66666666666666,157.35863924851486L167.55555555555557,157.49886098385866L170.44444444444446,157.5062976735783L173.33333333333331,157.58255811048392L176.22222222222223,158.35446463632877L179.11111111111111,158.9879225832621L182,159.41846540922728L184.88888888888889,159.70332847427412L187.77777777777777,159.88402112062522L190.66666666666666,160.00718234580933L193.55555555555557,160.07148643510124L196.44444444444443,160.14482636548303L199.33333333333334,160.2233615029668L202.22222222222223,160.2705396228106L205.11111111111111,160.2996682276714L208,160.31619174332113L210.88888888888889,160.34846517430523L213.77777777777777,160.36172135949926L216.66666666666669,160.37348614114455L219.55555555555554,160.37623578869062L222.44444444444443,160.37635026005742L225.33333333333334,160.381828664252L228.22222222222223,160.3811743886036L231.1111111111111,160.3846893140315L234,160.38522437166642L236.88888888888889,160.37962839810749L239.7777777777778,160.38072003619004L242.66666666666666,160.36868383750993L245.55555555555554,160.3874260277978L248.44444444444446,160.37858684781327L251.33333333333334,160.3968241494539" style="fill: none;" fill="none"></path></g></g></g></g><g opacity="0.2"><g><g><g><path stroke="rgb(0, 119, 187)" stroke-width="2px" d="M31.777777777777775,-28.515259454900587L34.666666666666664,59.42899147727273L37.55555555555555,97.89796542080967L40.44444444444444,116.43321394486861L43.33333333333333,128.78730718439274L46.22222222222222,133.98209156383166L49.11111111111111,140.16094560102982L52,141.82119185014204L54.888888888888886,144.9877797907049L57.77777777777777,146.49931286898527L60.666666666666664,146.86866553566674L63.55555555555555,148.37404178966176L66.44444444444444,148.98964767456056L69.33333333333333,149.57910032792526L72.22222222222223,150.18287281383166L75.1111111111111,151.06506536310368L78,151.28707647150213L80.88888888888889,151.84800118879838L83.77777777777779,152.19138827930797L86.66666666666666,152.4552755459872L89.55555555555556,153.0850136080655L92.44444444444444,153.10599397139117L95.33333333333333,153.7565951121937L98.22222222222221,153.629078355269L101.11111111111111,154.03351269808684L104,153.96204501758922L106.88888888888889,154.98349636424672L109.77777777777777,155.11819958079946L112.66666666666667,155.50045849193225L115.55555555555554,155.2699016571045L118.44444444444444,155.45246625033292L121.33333333333333,156.0781289811568L124.22222222222223,155.60375350952148L127.1111111111111,156.0303466172652L130,155.8928365950151L132.88888888888889,156.22102730490946L135.7777777777778,156.06156963001598L138.66666666666666,156.33643226623536L141.55555555555554,156.59021824229848L144.44444444444446,156.38337141557173L147.33333333333334,156.28019738630815L150.2222222222222,156.63174933693625L153.11111111111111,156.81290620630438L156,156.90024064150722L158.8888888888889,157.07697896784003L161.77777777777777,157.2309755013206L164.66666666666666,157.2572342889959L167.55555555555557,157.22523287686434L170.44444444444446,157.27568562594328L173.33333333333331,157.19348887356844L176.22222222222223,159.2448453174938L179.11111111111111,159.5197738491405L182,159.94141507755626L184.88888888888889,160.05987561139193L187.77777777777777,159.89531080939554L190.66666666666666,159.9934087302468L193.55555555555557,159.94803934270686L196.44444444444443,160.09952953512018L199.33333333333334,160.06713506525213L202.22222222222223,160.18482290961526L205.11111111111111,160.04527522173794L208,160.09286499196833L210.88888888888889,160.00043515812268L213.77777777777777,160.16025394613092L216.66666666666669,160.11410014065828L219.55555555555554,160.14018161253495L222.44444444444443,160.21960010875355L225.33333333333334,160.01688725558193L228.22222222222223,160.1332525617426L231.1111111111111,160.10471968737517L234,160.14352885332974L236.88888888888889,160.02156984329224L239.7777777777778,160.05071784452957L242.66666666666666,160.1094115343961L245.55555555555554,160.21242938995363L248.44444444444446,160.1330954621055L251.33333333333334,160.15149124318904" style="fill: none;" fill="none"></path></g><g><path stroke="rgb(255, 112, 67)" stroke-width="2px" d="M31.777777777777775,-126.11975164240056L34.666666666666664,12.403851540305396L37.55555555555555,77.94007690429687L40.44444444444444,108.40635953036221L43.33333333333333,124.81440365878018L46.22222222222222,132.48987093838778L49.11111111111111,137.78968059193005L52,141.22598237471146L54.888888888888886,143.253491155451L57.77777777777777,145.58703496759588L60.666666666666664,147.2133946089311L63.55555555555555,148.19897044788706L66.44444444444444,148.5443439691717L69.33333333333333,149.73536045421253L72.22222222222223,150.62989628184926L75.1111111111111,151.31087907270953L78,151.37827203924007L80.88888888888889,152.03820471330124L83.77777777777779,152.3526743594083L86.66666666666666,152.7544130082564L89.55555555555556,153.32252665433018L92.44444444444444,153.63427159396085L95.33333333333333,153.79025085449217L98.22222222222221,154.31423092235218L101.11111111111111,154.39806101712313L104,154.90190887451172L106.88888888888889,155.1312231098522L109.77777777777777,155.25305958834562L112.66666666666667,155.2322125590931L115.55555555555554,155.52282034440475L118.44444444444444,155.63269255898214L121.33333333333333,155.98047103188253L124.22222222222223,156.13384595697576L127.1111111111111,156.22433596524326L130,156.36662564364346L132.88888888888889,156.47256512035023L135.7777777777778,156.53241853887386L138.66666666666666,156.69460277210584L141.55555555555554,156.83913906790994L144.44444444444446,156.83957147771662L147.33333333333334,156.99520227952436L150.2222222222222,157.17199060613459L153.11111111111111,157.07104220650413L156,157.39358658877285L158.8888888888889,157.16236863916572L161.77777777777777,157.3497446788441L164.66666666666666,157.5406232070923L167.55555555555557,157.70919358686967L170.44444444444446,157.51745270815763L173.33333333333331,157.6969487658414L176.22222222222223,159.51232442509044L179.11111111111111,159.93810950365935L182,160.06427964817394L184.88888888888889,160.13062307184393L187.77777777777777,160.1550600901517L190.66666666666666,160.19192418358543L193.55555555555557,160.1679425690391L196.44444444444443,160.2548362610557L199.33333333333334,160.34116420919244L202.22222222222223,160.34130680257624L205.11111111111111,160.3433611349626L208,160.34097701679576L210.88888888888889,160.39687532078136L213.77777777777777,160.38160563729025L216.66666666666669,160.3911333136125L219.55555555555554,160.38036026000975L222.44444444444443,160.3765219671076L225.33333333333334,160.39004627054388L228.22222222222223,160.38019297513094L231.1111111111111,160.3899617021734L234,160.38602695811878L236.88888888888889,160.37123443776912L239.7777777777778,160.38235749331386L242.66666666666666,160.35062953948974L245.55555555555554,160.41553931322966L248.44444444444446,160.36532807783647L251.33333333333334,160.42418010191483" style="fill: none;" fill="none"></path></g></g></g></g></g></g><g transform="translate(70, 178)" clip-path="url(#clip_1)"><clipPath id="clip_1"><rect width="260" height="22"></rect></clipPath><g><g><line x1="0" y1="0" x2="0" y2="5" style="visibility: inherit;" fill="rgb(0, 0, 0)" stroke="rgb(204, 204, 204)" stroke-width="1px"></line><line x1="28.888888888888886" y1="0" x2="28.888888888888886" y2="5" style="visibility: inherit;" fill="rgb(0, 0, 0)" stroke="rgb(204, 204, 204)" stroke-width="1px"></line><line x1="57.77777777777777" y1="0" x2="57.77777777777777" y2="5" style="visibility: inherit;" fill="rgb(0, 0, 0)" stroke="rgb(204, 204, 204)" stroke-width="1px"></line><line x1="86.66666666666666" y1="0" x2="86.66666666666666" y2="5" style="visibility: inherit;" fill="rgb(0, 0, 0)" stroke="rgb(204, 204, 204)" stroke-width="1px"></line><line x1="115.55555555555554" y1="0" x2="115.55555555555554" y2="5" style="visibility: inherit;" fill="rgb(0, 0, 0)" stroke="rgb(204, 204, 204)" stroke-width="1px"></line><line x1="144.44444444444446" y1="0" x2="144.44444444444446" y2="5" style="visibility: inherit;" fill="rgb(0, 0, 0)" stroke="rgb(204, 204, 204)" stroke-width="1px"></line><line x1="173.33333333333331" y1="0" x2="173.33333333333331" y2="5" style="visibility: inherit;" fill="rgb(0, 0, 0)" stroke="rgb(204, 204, 204)" stroke-width="1px"></line><line x1="202.22222222222223" y1="0" x2="202.22222222222223" y2="5" style="visibility: inherit;" fill="rgb(0, 0, 0)" stroke="rgb(204, 204, 204)" stroke-width="1px"></line><line x1="231.1111111111111" y1="0" x2="231.1111111111111" y2="5" style="visibility: inherit;" fill="rgb(0, 0, 0)" stroke="rgb(204, 204, 204)" stroke-width="1px"></line><line x1="260" y1="0" x2="260" y2="5" style="visibility: inherit;" fill="rgb(0, 0, 0)" stroke="rgb(204, 204, 204)" stroke-width="1px"></line></g><g transform="translate(0, 8)"><text x="0" y="0" dx="0em" dy="0.95em" style="text-anchor: middle; visibility: hidden; font-family: &quot;Helvetica Neue&quot;, sans-serif; font-size: 12px; font-weight: 200;" fill="rgb(50, 49, 63)" stroke="none" stroke-width="1px">-10</text><text x="28.888888888888886" y="0" dx="0em" dy="0.95em" style="text-anchor: middle; visibility: inherit; font-family: &quot;Helvetica Neue&quot;, sans-serif; font-size: 12px; font-weight: 200;" fill="rgb(50, 49, 63)" stroke="none" stroke-width="1px">0</text><text x="57.77777777777777" y="0" dx="0em" dy="0.95em" style="text-anchor: middle; visibility: inherit; font-family: &quot;Helvetica Neue&quot;, sans-serif; font-size: 12px; font-weight: 200;" fill="rgb(50, 49, 63)" stroke="none" stroke-width="1px">10</text><text x="86.66666666666666" y="0" dx="0em" dy="0.95em" style="text-anchor: middle; visibility: inherit; font-family: &quot;Helvetica Neue&quot;, sans-serif; font-size: 12px; font-weight: 200;" fill="rgb(50, 49, 63)" stroke="none" stroke-width="1px">20</text><text x="115.55555555555554" y="0" dx="0em" dy="0.95em" style="text-anchor: middle; visibility: inherit; font-family: &quot;Helvetica Neue&quot;, sans-serif; font-size: 12px; font-weight: 200;" fill="rgb(50, 49, 63)" stroke="none" stroke-width="1px">30</text><text x="144.44444444444446" y="0" dx="0em" dy="0.95em" style="text-anchor: middle; visibility: inherit; font-family: &quot;Helvetica Neue&quot;, sans-serif; font-size: 12px; font-weight: 200;" fill="rgb(50, 49, 63)" stroke="none" stroke-width="1px">40</text><text x="173.33333333333331" y="0" dx="0em" dy="0.95em" style="text-anchor: middle; visibility: inherit; font-family: &quot;Helvetica Neue&quot;, sans-serif; font-size: 12px; font-weight: 200;" fill="rgb(50, 49, 63)" stroke="none" stroke-width="1px">50</text><text x="202.22222222222223" y="0" dx="0em" dy="0.95em" style="text-anchor: middle; visibility: inherit; font-family: &quot;Helvetica Neue&quot;, sans-serif; font-size: 12px; font-weight: 200;" fill="rgb(50, 49, 63)" stroke="none" stroke-width="1px">60</text><text x="231.1111111111111" y="0" dx="0em" dy="0.95em" style="text-anchor: middle; visibility: inherit; font-family: &quot;Helvetica Neue&quot;, sans-serif; font-size: 12px; font-weight: 200;" fill="rgb(50, 49, 63)" stroke="none" stroke-width="1px">70</text><text x="260" y="0" dx="0em" dy="0.95em" style="text-anchor: middle; visibility: hidden; font-family: &quot;Helvetica Neue&quot;, sans-serif; font-size: 12px; font-weight: 200;" fill="rgb(50, 49, 63)" stroke="none" stroke-width="1px">80</text></g><line x1="0" y1="0" x2="260" y2="0" fill="rgb(0, 0, 0)" stroke="rgb(204, 204, 204)" stroke-width="1px"></line></g></g></g></g></svg>