<svg viewBox="0 0 330 200" xmlns="http://www.w3.org/2000/svg"><g><g><g><g><g><line x1="70" y1="178" x2="65" y2="178" style="visibility: inherit;" fill="rgb(0, 0, 0)" stroke="rgb(204, 204, 204)" stroke-width="1px"></line><line x1="70" y1="158.22222222222223" x2="65" y2="158.22222222222223" style="visibility: inherit;" fill="rgb(0, 0, 0)" stroke="rgb(204, 204, 204)" stroke-width="1px"></line><line x1="70" y1="138.44444444444446" x2="65" y2="138.44444444444446" style="visibility: inherit;" fill="rgb(0, 0, 0)" stroke="rgb(204, 204, 204)" stroke-width="1px"></line><line x1="70" y1="118.66666666666667" x2="65" y2="118.66666666666667" style="visibility: inherit;" fill="rgb(0, 0, 0)" stroke="rgb(204, 204, 204)" stroke-width="1px"></line><line x1="70" y1="98.8888888888889" x2="65" y2="98.8888888888889" style="visibility: inherit;" fill="rgb(0, 0, 0)" stroke="rgb(204, 204, 204)" stroke-width="1px"></line><line x1="70" y1="79.1111111111111" x2="65" y2="79.1111111111111" style="visibility: inherit;" fill="rgb(0, 0, 0)" stroke="rgb(204, 204, 204)" stroke-width="1px"></line><line x1="70" y1="59.33333333333334" x2="65" y2="59.33333333333334" style="visibility: inherit;" fill="rgb(0, 0, 0)" stroke="rgb(204, 204, 204)" stroke-width="1px"></line><line x1="70" y1="39.55555555555554" x2="65" y2="39.55555555555554" style="visibility: inherit;" fill="rgb(0, 0, 0)" stroke="rgb(204, 204, 204)" stroke-width="1px"></line><line x1="70" y1="19.7777777777778" x2="65" y2="19.7777777777778" style="visibility: inherit;" fill="rgb(0, 0, 0)" stroke="rgb(204, 204, 204)" stroke-width="1px"></line><line x1="70" y1="0" x2="65" y2="0" style="visibility: inherit;" fill="rgb(0, 0, 0)" stroke="rgb(204, 204, 204)" stroke-width="1px"></line></g><g transform="translate(60, 0)"><text x="0" y="178" dx="0em" dy="0.3em" style="text-anchor: end; visibility: hidden; font-family: &quot;Helvetica Neue&quot;, sans-serif; font-size: 12px; font-weight: 200;" fill="rgb(50, 49, 63)" stroke="none" stroke-width="1px">-200</text><text x="0" y="158.22222222222223" dx="0em" dy="0.3em" style="text-anchor: end; visibility: inherit; font-family: &quot;Helvetica Neue&quot;, sans-serif; font-size: 12px; font-weight: 200;" fill="rgb(50, 49, 63)" stroke="none" stroke-width="1px">0</text><text x="0" y="138.44444444444446" dx="0em" dy="0.3em" style="text-anchor: end; visibility: hidden; font-family: &quot;Helvetica Neue&quot;, sans-serif; font-size: 12px; font-weight: 200;" fill="rgb(50, 49, 63)" stroke="none" stroke-width="1px">200</text><text x="0" y="118.66666666666667" dx="0em" dy="0.3em" style="text-anchor: end; visibility: inherit; font-family: &quot;Helvetica Neue&quot;, sans-serif; font-size: 12px; font-weight: 200;" fill="rgb(50, 49, 63)" stroke="none" stroke-width="1px">400</text><text x="0" y="98.8888888888889" dx="0em" dy="0.3em" style="text-anchor: end; visibility: hidden; font-family: &quot;Helvetica Neue&quot;, sans-serif; font-size: 12px; font-weight: 200;" fill="rgb(50, 49, 63)" stroke="none" stroke-width="1px">600</text><text x="0" y="79.1111111111111" dx="0em" dy="0.3em" style="text-anchor: end; visibility: inherit; font-family: &quot;Helvetica Neue&quot;, sans-serif; font-size: 12px; font-weight: 200;" fill="rgb(50, 49, 63)" stroke="none" stroke-width="1px">800</text><text x="0" y="59.33333333333334" dx="0em" dy="0.3em" style="text-anchor: end; visibility: hidden; font-family: &quot;Helvetica Neue&quot;, sans-serif; font-size: 12px; font-weight: 200;" fill="rgb(50, 49, 63)" stroke="none" stroke-width="1px">1e+3</text><text x="0" y="39.55555555555554" dx="0em" dy="0.3em" style="text-anchor: end; visibility: inherit; font-family: &quot;Helvetica Neue&quot;, sans-serif; font-size: 12px; font-weight: 200;" fill="rgb(50, 49, 63)" stroke="none" stroke-width="1px">1.2e+3</text><text x="0" y="19.7777777777778" dx="0em" dy="0.3em" style="text-anchor: end; visibility: hidden; font-family: &quot;Helvetica Neue&quot;, sans-serif; font-size: 12px; font-weight: 200;" fill="rgb(50, 49, 63)" stroke="none" stroke-width="1px">1.4e+3</text><text x="0" y="0" dx="0em" dy="0.3em" style="text-anchor: end; visibility: hidden; font-family: &quot;Helvetica Neue&quot;, sans-serif; font-size: 12px; font-weight: 200;" fill="rgb(50, 49, 63)" stroke="none" stroke-width="1px">1.6e+3</text></g><line x1="70" y1="0" x2="70" y2="178" fill="rgb(0, 0, 0)" stroke="rgb(204, 204, 204)" stroke-width="1px"></line></g></g><g transform="translate(70, 0)" clip-path="url(#clip_0)"><clipPath id="clip_0"><rect width="260" height="178"></rect></clipPath><g><g><g><line x1="0" y1="0" x2="0" y2="178" fill="rgb(0, 0, 0)" stroke="rgb(60, 60, 60)" stroke-width="1px" opacity="0.25"></line><line x1="28.888888888888886" y1="0" x2="28.888888888888886" y2="178" fill="rgb(0, 0, 0)" stroke="rgb(60, 60, 60)" stroke-width="1px" opacity="0.25"></line><line x1="57.77777777777777" y1="0" x2="57.77777777777777" y2="178" fill="rgb(0, 0, 0)" stroke="rgb(60, 60, 60)" stroke-width="1px" opacity="0.25"></line><line x1="86.66666666666666" y1="0" x2="86.66666666666666" y2="178" fill="rgb(0, 0, 0)" stroke="rgb(60, 60, 60)" stroke-width="1px" opacity="0.25"></line><line x1="115.55555555555554" y1="0" x2="115.55555555555554" y2="178" fill="rgb(0, 0, 0)" stroke="rgb(60, 60, 60)" stroke-width="1px" opacity="0.25"></line><line x1="144.44444444444446" y1="0" x2="144.44444444444446" y2="178" fill="rgb(0, 0, 0)" stroke="rgb(60, 60, 60)" stroke-width="1px" opacity="0.25"></line><line x1="173.33333333333331" y1="0" x2="173.33333333333331" y2="178" fill="rgb(0, 0, 0)" stroke="rgb(60, 60, 60)" stroke-width="1px" opacity="0.25"></line><line x1="202.22222222222223" y1="0" x2="202.22222222222223" y2="178" fill="rgb(0, 0, 0)" stroke="rgb(60, 60, 60)" stroke-width="1px" opacity="0.25"></line><line x1="231.1111111111111" y1="0" x2="231.1111111111111" y2="178" fill="rgb(0, 0, 0)" stroke="rgb(60, 60, 60)" stroke-width="1px" opacity="0.25"></line><line x1="260" y1="0" x2="260" y2="178" fill="rgb(0, 0, 0)" stroke="rgb(60, 60, 60)" stroke-width="1px" opacity="0.25"></line></g><g><line x1="0" y1="178" x2="260" y2="178" fill="rgb(0, 0, 0)" stroke="rgb(60, 60, 60)" stroke-width="1px" opacity="0.25"></line><line x1="0" y1="158.22222222222223" x2="260" y2="158.22222222222223" fill="rgb(0, 0, 0)" stroke="rgb(60, 60, 60)" stroke-width="1px" opacity="0.25"></line><line x1="0" y1="138.44444444444446" x2="260" y2="138.44444444444446" fill="rgb(0, 0, 0)" stroke="rgb(60, 60, 60)" stroke-width="1px" opacity="0.25"></line><line x1="0" y1="118.66666666666667" x2="260" y2="118.66666666666667" fill="rgb(0, 0, 0)" stroke="rgb(60, 60, 60)" stroke-width="1px" opacity="0.25"></line><line x1="0" y1="98.8888888888889" x2="260" y2="98.8888888888889" fill="rgb(0, 0, 0)" stroke="rgb(60, 60, 60)" stroke-width="1px" opacity="0.25"></line><line x1="0" y1="79.1111111111111" x2="260" y2="79.1111111111111" fill="rgb(0, 0, 0)" stroke="rgb(60, 60, 60)" stroke-width="1px" opacity="0.25"></line><line x1="0" y1="59.33333333333334" x2="260" y2="59.33333333333334" fill="rgb(0, 0, 0)" stroke="rgb(60, 60, 60)" stroke-width="1px" opacity="0.25"></line><line x1="0" y1="39.55555555555554" x2="260" y2="39.55555555555554" fill="rgb(0, 0, 0)" stroke="rgb(60, 60, 60)" stroke-width="1px" opacity="0.25"></line><line x1="0" y1="19.7777777777778" x2="260" y2="19.7777777777778" fill="rgb(0, 0, 0)" stroke="rgb(60, 60, 60)" stroke-width="1px" opacity="0.25"></line><line x1="0" y1="0" x2="260" y2="0" fill="rgb(0, 0, 0)" stroke="rgb(60, 60, 60)" stroke-width="1px" opacity="0.25"></line></g></g></g><g><g><line x1="0" y1="158.22222222222223" x2="260" y2="158.22222222222223" fill="rgb(0, 0, 0)" stroke="rgb(153, 153, 153)" stroke-width="1.5px"></line></g></g><g><g><line x1="28.888888888888886" y1="0" x2="28.888888888888886" y2="178" fill="rgb(0, 0, 0)" stroke="rgb(153, 153, 153)" stroke-width="1.5px"></line></g></g><g><g><g><g><g><path stroke="rgb(0, 119, 187)" stroke-width="2px" d="M34.666666666666664,-18.493691853287544L37.55555555555555,34.47488363652445L40.44444444444444,70.16669962687467L43.33333333333333,93.4821278200105L46.22222222222222,109.23348790502683L49.11111111111111,120.1473528203417L52,128.012910172467L54.888888888888886,133.00413759999708L57.77777777777777,136.87243595764392L60.666666666666664,139.40363414825978L63.55555555555555,141.40783395419717L66.44444444444444,142.98789981381546L69.33333333333333,144.355682369769L72.22222222222223,145.3474727488645L75.1111111111111,146.2479445611405L78,146.81680468384047L80.88888888888889,147.46471264358317L83.77777777777779,147.8979663717424L86.66666666666666,148.36122393529214L89.55555555555556,148.80338980194162L92.44444444444444,149.23686231663547L95.33333333333333,149.55063686179076L98.22222222222221,149.96447073325908L101.11111111111111,150.31480668122776L104,150.74004494607982L106.88888888888889,150.88987457688287L109.77777777777777,151.22707458282986L112.66666666666667,151.3734936630895L115.55555555555554,151.68503053144076L118.44444444444444,151.75617041057225L121.33333333333333,151.89259432405197L124.22222222222223,152.14019892025092L127.1111111111111,152.35385110292083L130,152.42609102918328L132.88888888888889,152.6692799903122L135.7777777777778,152.73389823700808L138.66666666666666,152.82530515605868L141.55555555555554,152.90890443265482L144.44444444444446,152.96500569132192L147.33333333333334,153.18273413457024L150.2222222222222,153.19419165024686L153.11111111111111,153.2757540089204L156,153.38944270246964L158.8888888888889,153.4304151501573L161.77777777777777,153.5436046385334L164.66666666666666,153.63381737160947L167.55555555555557,153.72027070522054L170.44444444444446,153.8812675358452L173.33333333333331,153.90593549573686L176.22222222222223,154.51945525903244L179.11111111111111,155.22831369904048L182,155.673712324412L184.88888888888889,155.86232226362517L187.77777777777777,156.0380950971685L190.66666666666666,156.18875109194508L193.55555555555557,156.20612895445632L196.44444444444443,156.2971033548312L199.33333333333334,156.3544336344333L202.22222222222223,156.4349935055162L205.11111111111111,156.41136179290527L208,156.35541376814632L210.88888888888889,156.37948889453443L213.77777777777777,156.39688195654622L216.66666666666669,156.46343613668273L219.55555555555554,156.4967943353096L222.44444444444443,156.48209508381788L225.33333333333334,156.54884847968322L228.22222222222223,156.51126102262438L231.1111111111111,156.54696428315063L234,156.54996521132918L236.88888888888889,156.55332878788286L239.7777777777778,156.55847418024788L242.66666666666666,156.5643816713703L245.55555555555554,156.5432038683753L248.44444444444446,156.541798806214L251.33333333333334,156.53324931326262L254.2222222222222,156.53920357474007" style="fill: none;" fill="none"></path></g><g><path stroke="rgb(255, 112, 67)" stroke-width="2px" d="M37.55555555555555,-28.11525353575061L40.44444444444444,29.194563711017736L43.33333333333333,67.53693926779692L46.22222222222222,93.09916665935614L49.11111111111111,109.76835875022803L52,120.96119051863218L54.888888888888886,128.56715914235292L57.77777777777777,133.8506828190525L60.666666666666664,137.5970994318712L63.55555555555555,140.29270623234893L66.44444444444444,142.16651738134996L69.33333333333333,143.6282946237617L72.22222222222223,144.66949783117406L75.1111111111111,145.52915717146786L78,146.3373494304047L80.88888888888889,147.1052551845093L83.77777777777779,147.6620228017286L86.66666666666666,148.21695037906L89.55555555555556,148.65539427698224L92.44444444444444,149.06767596576563L95.33333333333333,149.49596925574048L98.22222222222221,149.87155148313315L101.11111111111111,150.14885642530294L104,150.4534066351477L106.88888888888889,150.75638465515564L109.77777777777777,150.89770408531646L112.66666666666667,151.20498489501682L115.55555555555554,151.45243032123207L118.44444444444444,151.61233248999764L121.33333333333333,151.7711354380645L124.22222222222223,151.90250374076433L127.1111111111111,152.12158727019747L130,152.26403216535908L132.88888888888889,152.38952876145856L135.7777777777778,152.5043795582592L138.66666666666666,152.59279047352868L141.55555555555554,152.7503434873443L144.44444444444446,152.8642842920965L147.33333333333334,152.945487158888L150.2222222222222,153.11997850686322L153.11111111111111,153.17254132538628L156,153.25430598929137L158.8888888888889,153.35770478736111L161.77777777777777,153.4602173497561L164.66666666666666,153.51917872765827L167.55555555555557,153.5852025694409L170.44444444444446,153.68078606023357L173.33333333333331,153.68588933531822L176.22222222222223,154.4575042890594L179.11111111111111,155.1039783467183L182,155.55924124844893L184.88888888888889,155.84755674163003L187.77777777777777,156.04664296560526L190.66666666666666,156.17301809917385L193.55555555555557,156.25682901237704L196.44444444444443,156.3110237507083L199.33333333333334,156.35619277639205L202.22222222222223,156.38716262204588L205.11111111111111,156.43011328605036L208,156.44206683824126L210.88888888888889,156.47302550757394L213.77777777777777,156.50606744925193L216.66666666666669,156.53297995811045L219.55555555555554,156.58198460046984L222.44444444444443,156.59563783347662L225.33333333333334,156.62364765073227L228.22222222222223,156.62864835555573L231.1111111111111,156.65829853880206L234,156.65352905512532L236.88888888888889,156.66595703480385L239.7777777777778,156.6693426306113L242.66666666666666,156.67891702720576L245.55555555555554,156.681554789213L248.44444444444446,156.67137462394825L251.33333333333334,156.66721035930615L254.2222222222222,156.67424337604172" style="fill: none;" fill="none"></path></g></g></g></g><g opacity="0.2"><g><g><g><path stroke="rgb(0, 119, 187)" stroke-width="2px" d="M31.777777777777775,-25.831559516059002L34.666666666666664,61.914204169379346L37.55555555555555,96.7659284125434L40.44444444444444,116.76593458387586L43.33333333333333,125.73575856526693L46.22222222222222,131.75818484836154L49.11111111111111,136.05987263997395L52,139.61307946099174L54.888888888888886,140.41552863226997L57.77777777777777,142.639798312717L60.666666666666664,143.18665676540797L63.55555555555555,144.40758960300022L66.44444444444444,145.35490308973525L69.33333333333333,146.4057484266493L72.22222222222223,146.83445883009168L75.1111111111111,147.59827123006184L78,147.66995043436685L80.88888888888889,148.43647588094075L83.77777777777779,148.54780736287435L86.66666666666666,149.05608487447103L89.55555555555556,149.46662405225965L92.44444444444444,149.88706253051757L95.33333333333333,150.0212949625651L98.22222222222221,150.58521859910752L101.11111111111111,150.840309109158L104,151.37790125528971L106.88888888888889,151.1146187930637L109.77777777777777,151.7328742811415L112.66666666666667,151.59312220255535L115.55555555555554,152.15233573065865L118.44444444444444,151.862880215115L121.33333333333333,152.0972301779853L124.22222222222223,152.51160579681397L127.1111111111111,152.6743293677436L130,152.53445091671415L132.88888888888889,153.034063428243L135.7777777777778,152.8308256064521L138.66666666666666,152.96241553412543L141.55555555555554,153.03430334726968L144.44444444444446,153.04915757921006L147.33333333333334,153.50932679918077L150.2222222222222,153.21137792375353L153.11111111111111,153.39809754689534L156,153.55997574276395L158.8888888888889,153.4918738216824L161.77777777777777,153.71338887108698L164.66666666666666,153.76913647121853L167.55555555555557,153.84995070563423L170.44444444444446,154.12276278177896L173.33333333333331,153.942937435574L176.22222222222223,155.43973490397136L179.11111111111111,156.29160135904948L182,156.34181026246813L184.88888888888889,156.14523717244467L187.77777777777777,156.30175434748332L190.66666666666666,156.41473508410985L193.55555555555557,156.2321957482232L196.44444444444443,156.43356495539348L199.33333333333334,156.4404290538364L202.22222222222223,156.55583331214058L205.11111111111111,156.37591422398884L208,156.2714917310079L210.88888888888889,156.41560158411662L213.77777777777777,156.42297154956393L216.66666666666669,156.5632674068875L219.55555555555554,156.54683163324992L222.44444444444443,156.46004620658027L225.33333333333334,156.64897857348123L228.22222222222223,156.45487983703615L231.1111111111111,156.60051917394003L234,156.554466603597L236.88888888888889,156.55837415271336L239.7777777777778,156.56619226879545L242.66666666666666,156.57324290805394L245.55555555555554,156.5114371638828L248.44444444444446,156.539691212972L251.33333333333334,156.52042507383558L254.2222222222222,156.54813496695624" style="fill: none;" fill="none"></path></g><g><path stroke="rgb(255, 112, 67)" stroke-width="2px" d="M31.777777777777775,-133.34203369140624L34.666666666666664,12.302238905164927L37.55555555555555,77.13907931857638L40.44444444444444,104.01826110839843L43.33333333333333,120.57824791802301L46.22222222222222,129.65356082492406L49.11111111111111,134.07220084296333L52,137.46844328138565L54.888888888888886,139.86113611857095L57.77777777777777,141.72804716322156L60.666666666666664,143.19633651733398L63.55555555555555,144.3273148091634L66.44444444444444,144.9735631137424L69.33333333333333,145.81924222310386L72.22222222222223,146.23056830512152L75.1111111111111,146.81828240288627L78,147.54943261888292L80.88888888888889,148.25699683295358L83.77777777777779,148.497123336792L86.66666666666666,149.04931131150988L89.55555555555556,149.3130456966824L92.44444444444444,149.686090359158L95.33333333333333,150.13840411716038L98.22222222222221,150.43492215474447L101.11111111111111,150.56481265597873L104,150.9102311706543L106.88888888888889,151.21085122002495L109.77777777777777,151.10968310038248L112.66666666666667,151.66590593973797L115.55555555555554,151.82359837849936L118.44444444444444,151.85218571133083L121.33333333333333,152.00933984120687L124.22222222222223,152.09955618540445L127.1111111111111,152.45021255493162L130,152.47769950442844L132.88888888888889,152.57777365366618L135.7777777777778,152.67665575239394L138.66666666666666,152.72540684594048L141.55555555555554,152.98667300754124L144.44444444444446,153.0351954989963L147.33333333333334,153.0672914589776L150.2222222222222,153.38171552870008L153.11111111111111,153.25138555314805L156,153.37695298512776L158.8888888888889,153.5128029844496L161.77777777777777,153.61398619333903L164.66666666666666,153.6076207945082L167.55555555555557,153.68423833211264L170.44444444444446,153.82416129642064L173.33333333333331,153.69354424794514L176.22222222222223,155.61492671966553L179.11111111111111,156.0736894332038L182,156.2421356010437L184.88888888888889,156.28002998140124L187.77777777777777,156.34527230156792L190.66666666666666,156.36258079952665L193.55555555555557,156.3825453821818L196.44444444444443,156.39231585820517L199.33333333333334,156.42394631491766L202.22222222222223,156.43361739052665L205.11111111111111,156.49453928205702L208,156.45999716652764L210.88888888888889,156.51946351157295L213.77777777777777,156.55563036176892L216.66666666666669,156.57334872139825L219.55555555555554,156.6554915640089L222.44444444444443,156.61611768298678L225.33333333333334,156.66566237661573L228.22222222222223,156.63614941279093L231.1111111111111,156.70277381367154L234,156.64637482961018L236.88888888888889,156.68459900432163L239.7777777777778,156.6744210243225L242.66666666666666,156.69327862209744L245.55555555555554,156.68551143222385L248.44444444444446,156.65610437605116L251.33333333333334,156.660963962343L254.2222222222222,156.6847929011451" style="fill: none;" fill="none"></path></g></g></g></g></g></g><g transform="translate(70, 178)" clip-path="url(#clip_1)"><clipPath id="clip_1"><rect width="260" height="22"></rect></clipPath><g><g><line x1="0" y1="0" x2="0" y2="5" style="visibility: inherit;" fill="rgb(0, 0, 0)" stroke="rgb(204, 204, 204)" stroke-width="1px"></line><line x1="28.888888888888886" y1="0" x2="28.888888888888886" y2="5" style="visibility: inherit;" fill="rgb(0, 0, 0)" stroke="rgb(204, 204, 204)" stroke-width="1px"></line><line x1="57.77777777777777" y1="0" x2="57.77777777777777" y2="5" style="visibility: inherit;" fill="rgb(0, 0, 0)" stroke="rgb(204, 204, 204)" stroke-width="1px"></line><line x1="86.66666666666666" y1="0" x2="86.66666666666666" y2="5" style="visibility: inherit;" fill="rgb(0, 0, 0)" stroke="rgb(204, 204, 204)" stroke-width="1px"></line><line x1="115.55555555555554" y1="0" x2="115.55555555555554" y2="5" style="visibility: inherit;" fill="rgb(0, 0, 0)" stroke="rgb(204, 204, 204)" stroke-width="1px"></line><line x1="144.44444444444446" y1="0" x2="144.44444444444446" y2="5" style="visibility: inherit;" fill="rgb(0, 0, 0)" stroke="rgb(204, 204, 204)" stroke-width="1px"></line><line x1="173.33333333333331" y1="0" x2="173.33333333333331" y2="5" style="visibility: inherit;" fill="rgb(0, 0, 0)" stroke="rgb(204, 204, 204)" stroke-width="1px"></line><line x1="202.22222222222223" y1="0" x2="202.22222222222223" y2="5" style="visibility: inherit;" fill="rgb(0, 0, 0)" stroke="rgb(204, 204, 204)" stroke-width="1px"></line><line x1="231.1111111111111" y1="0" x2="231.1111111111111" y2="5" style="visibility: inherit;" fill="rgb(0, 0, 0)" stroke="rgb(204, 204, 204)" stroke-width="1px"></line><line x1="260" y1="0" x2="260" y2="5" style="visibility: inherit;" fill="rgb(0, 0, 0)" stroke="rgb(204, 204, 204)" stroke-width="1px"></line></g><g transform="translate(0, 8)"><text x="0" y="0" dx="0em" dy="0.95em" style="text-anchor: middle; visibility: hidden; font-family: &quot;Helvetica Neue&quot;, sans-serif; font-size: 12px; font-weight: 200;" fill="rgb(50, 49, 63)" stroke="none" stroke-width="1px">-10</text><text x="28.888888888888886" y="0" dx="0em" dy="0.95em" style="text-anchor: middle; visibility: inherit; font-family: &quot;Helvetica Neue&quot;, sans-serif; font-size: 12px; font-weight: 200;" fill="rgb(50, 49, 63)" stroke="none" stroke-width="1px">0</text><text x="57.77777777777777" y="0" dx="0em" dy="0.95em" style="text-anchor: middle; visibility: inherit; font-family: &quot;Helvetica Neue&quot;, sans-serif; font-size: 12px; font-weight: 200;" fill="rgb(50, 49, 63)" stroke="none" stroke-width="1px">10</text><text x="86.66666666666666" y="0" dx="0em" dy="0.95em" style="text-anchor: middle; visibility: inherit; font-family: &quot;Helvetica Neue&quot;, sans-serif; font-size: 12px; font-weight: 200;" fill="rgb(50, 49, 63)" stroke="none" stroke-width="1px">20</text><text x="115.55555555555554" y="0" dx="0em" dy="0.95em" style="text-anchor: middle; visibility: inherit; font-family: &quot;Helvetica Neue&quot;, sans-serif; font-size: 12px; font-weight: 200;" fill="rgb(50, 49, 63)" stroke="none" stroke-width="1px">30</text><text x="144.44444444444446" y="0" dx="0em" dy="0.95em" style="text-anchor: middle; visibility: inherit; font-family: &quot;Helvetica Neue&quot;, sans-serif; font-size: 12px; font-weight: 200;" fill="rgb(50, 49, 63)" stroke="none" stroke-width="1px">40</text><text x="173.33333333333331" y="0" dx="0em" dy="0.95em" style="text-anchor: middle; visibility: inherit; font-family: &quot;Helvetica Neue&quot;, sans-serif; font-size: 12px; font-weight: 200;" fill="rgb(50, 49, 63)" stroke="none" stroke-width="1px">50</text><text x="202.22222222222223" y="0" dx="0em" dy="0.95em" style="text-anchor: middle; visibility: inherit; font-family: &quot;Helvetica Neue&quot;, sans-serif; font-size: 12px; font-weight: 200;" fill="rgb(50, 49, 63)" stroke="none" stroke-width="1px">60</text><text x="231.1111111111111" y="0" dx="0em" dy="0.95em" style="text-anchor: middle; visibility: inherit; font-family: &quot;Helvetica Neue&quot;, sans-serif; font-size: 12px; font-weight: 200;" fill="rgb(50, 49, 63)" stroke="none" stroke-width="1px">70</text><text x="260" y="0" dx="0em" dy="0.95em" style="text-anchor: middle; visibility: hidden; font-family: &quot;Helvetica Neue&quot;, sans-serif; font-size: 12px; font-weight: 200;" fill="rgb(50, 49, 63)" stroke="none" stroke-width="1px">80</text></g><line x1="0" y1="0" x2="260" y2="0" fill="rgb(0, 0, 0)" stroke="rgb(204, 204, 204)" stroke-width="1px"></line></g></g></g></g></svg>